<?xml version="1.0" encoding="utf-8"?>
<!-- Generator: Adobe Illustrator 23.1.1, SVG Export Plug-In . SVG Version: 6.00 Build 0)  -->
<svg version="1.1" id="Calque_1" xmlns="http://www.w3.org/2000/svg" xmlns:xlink="http://www.w3.org/1999/xlink" x="0px" y="0px"
	 viewBox="0 0 18.1 22.9" style="enable-background:new 0 0 18.1 22.9;" xml:space="preserve">
<style type="text/css">
	.st0{fill:#023F5F;}
</style>
<g id="Groupe_1922" transform="translate(0 0)">
	<path id="Tracé_1088" class="st0" d="M17.6,3.3h-1.5c-0.3,0-0.6,0.3-0.6,0.6v3.9h-0.6V5c0-0.1-0.1-0.3-0.2-0.4
		c-0.1-0.1-0.2-0.2-0.4-0.2h-1.2H12c0-0.2,0,0.4,0-1.5v-1c0-0.3-0.2-0.6-0.6-0.6H9.7c-0.3,0-0.6,0.3-0.6,0.6v3.7H8.8v-5
		c0-0.1-0.1-0.3-0.2-0.4C8.5,0.1,8.4,0,8.3,0H6.6C6.4,0,6.3,0.1,6.2,0.2C6.1,0.3,6,0.4,6,0.6v3.2H4.2c-0.3,0-0.6,0.3-0.6,0.6v2.1
		H2.4V5.3c0-0.3-0.2-0.6-0.6-0.6H0.6C0.2,4.7,0,5,0,5.3v8.4c0,0.1,0.1,0.3,0.2,0.4c0.1,0.1,0.2,0.2,0.4,0.2h14.9l2.1,0.1h0
		c0.1,0,0.3-0.1,0.4-0.2c0.1-0.1,0.2-0.3,0.2-0.4V3.9C18.1,3.6,17.9,3.3,17.6,3.3C17.6,3.3,17.6,3.3,17.6,3.3z M17,13.1l-15.9,0V5.9
		h0.1v1.2c0,0.3,0.2,0.6,0.6,0.6h2.4c0.3,0,0.6-0.3,0.6-0.6V5h1.8c0.3,0,0.6-0.3,0.6-0.6V1.1h0.6v5c0,0.3,0.2,0.6,0.6,0.6h1.4
		c0.2,0,0.3-0.1,0.4-0.2c0.1-0.1,0.2-0.3,0.2-0.4V2.4h0.6v1c0,0.2,0-0.7,0,1.5c0,0.3,0.2,0.6,0.6,0.6h2.3v2.8c0,0.3,0.2,0.6,0.6,0.6
		h1.8c0.2,0,0.3-0.1,0.4-0.2c0.1-0.1,0.2-0.3,0.2-0.4V4.4H17L17,13.1z"/>
	<path id="Tracé_1089" class="st0" d="M17.3,15.5c-0.4,0-0.7,0.3-0.7,0.7v2.3c0,0,0,0,0,0H1.5v-2.3c0-0.4-0.3-0.7-0.7-0.7
		c-0.4,0-0.7,0.3-0.7,0.7v5.9c0,0.4,0.3,0.7,0.7,0.7c0.4,0,0.7-0.3,0.7-0.7v-2.3h15.1c0,0,0,0,0,0v2.3c0,0.4,0.3,0.7,0.7,0.7
		c0.4,0,0.7-0.3,0.7-0.7v-5.9C18,15.8,17.7,15.5,17.3,15.5z"/>
</g>
</svg>
