<svg id="Groupe_3600" data-name="Groupe 3600" xmlns="http://www.w3.org/2000/svg" width="1919" height="82" viewBox="0 0 1919 82">
  <g id="Groupe_3599" data-name="Groupe 3599" transform="translate(-1)">
    <g id="Groupe_3598" data-name="Groupe 3598">
      <g id="Groupe_3596" data-name="Groupe 3596" transform="translate(0)">
        <g id="Groupe_3594" data-name="Groupe 3594" transform="translate(1 1)">
          <rect id="Rectangle_399" data-name="Rectangle 399" width="1890" height="80" fill="#fff"/>
        </g>
        <g id="Groupe_3593" data-name="Groupe 3593" transform="translate(1)" opacity="0.9">
          <rect id="Rectangle_228" data-name="Rectangle 228" width="1919" height="82" fill="#023f5f"/>
        </g>
        <g id="Groupe_3597" data-name="Groupe 3597" transform="translate(0 1)">
          <path id="Tracé_3274" data-name="Tracé 3274" d="M235.087,44.286s-.909-4.769-3.975-2.271c0,0-4.429,22.6-18.51,43.039,0,0-3.066,2.952-1.022,5.223a2.785,2.785,0,0,0,3.407-.795s4.429-.978,17.488-40.688c0,0,1.249-.716,1.59,0,0,0,1.7,12.64,6.927,17.068,0,0,.908.455.908,3.861a36.861,36.861,0,0,0,6.7,7.5s.568,0,0,2.044a11.856,11.856,0,0,0,7.836,10.22s2.952-.113-1.363-7.949C255.073,81.533,235.655,52.235,235.087,44.286Z" transform="translate(-6.447 -18.842)" fill="#023f5f"/>
          <path id="Tracé_3275" data-name="Tracé 3275" d="M315.949,48.614s-2.152-9.7-6.016-8.646-2.806,8.293-2.806,8.293-5.116,15.879-8.292,20.114-6.528,3-5.117,12.88c0,0-7.94,6.351-5.646,10.762s5.646-3,5.646-3L310.3,51.084s2.294-3.529,3.7,0,15.527,39.469,15.527,39.469,3.881,1.464,2.293-4.182S315.949,48.614,315.949,48.614Z" transform="translate(-6.447 -18.842)" fill="#023f5f"/>
          <path id="Tracé_3276" data-name="Tracé 3276" d="M135,30.215,117.412,66.932c-1.708,1.537-2.562,0-2.562,0L83.086,28.507a2.757,2.757,0,0,0-3.458-.545c-1.068.992,1.121,3.619,1.121,3.619L111.434,68.81c2.391,3.928,5.124,4.44,5.124,4.44a2.881,2.881,0,0,0,2.39-2.049c.171-5.806,20.835-41.157,20.835-41.157C138.417,25.262,135,30.215,135,30.215Z" transform="translate(-6.447 -18.842)" fill="#023f5f"/>
          <path id="Tracé_3277" data-name="Tracé 3277" d="M82.606,74.874s-3.6-1.106-4.333,1.383c0,0-.809,2.766,1.061,3.595,0,0,.783,1.383,4.47.646C83.8,80.5,87.4,77.732,82.606,74.874Z" transform="translate(-6.447 -18.842)" fill="#023f5f"/>
          <path id="Tracé_3278" data-name="Tracé 3278" d="M108.029,46.026s5.669,1.73,6.068-2.129c0,0,1.038-3.594-4.538-3.86a2.946,2.946,0,0,0-2.383,3.188Z" transform="translate(-6.447 -18.842)" fill="#023f5f"/>
          <path id="Tracé_3279" data-name="Tracé 3279" d="M155.585,74.072c-1.017-.86-2.609-1.264-4.907.557,0,0-1.184,3.9,3.566,4.909,0,0,4.295-1.09,2.8-3.291A5.512,5.512,0,0,0,155.585,74.072Z" transform="translate(-6.447 -18.842)" fill="#023f5f"/>
          <path id="Tracé_3280" data-name="Tracé 3280" d="M192.309,45.241s.6-2.444-3.26-3.95c0,0-4.031-.975-3.261,3.95C185.788,45.241,189.455,50.191,192.309,45.241Z" transform="translate(-6.447 -18.842)" fill="#023f5f"/>
          <path id="Tracé_3281" data-name="Tracé 3281" d="M230.1,67.724s-4.053.673-1.877,4.218c0,0,3.168,1.773,5.331,0C233.553,71.942,234.741,66.692,230.1,67.724Z" transform="translate(-6.447 -18.842)" fill="#023f5f"/>
          <path id="Tracé_3282" data-name="Tracé 3282" d="M270.251,49.429s2.34-.186,2.752-2.141c0,0,1.25-3.536-3.589-4a2.8,2.8,0,0,0-2.234,3.072S266.808,49.149,270.251,49.429Z" transform="translate(-6.447 -18.842)" fill="#023f5f"/>
          <path id="Tracé_3283" data-name="Tracé 3283" d="M309.524,68.507s-3.723-.186-2.7,2.838c0,0-.651,1.536,2.7,2.838a3.863,3.863,0,0,0,2.978-3.071S312.6,68.693,309.524,68.507Z" transform="translate(-6.447 -18.842)" fill="#023f5f"/>
          <path id="Tracé_3284" data-name="Tracé 3284" d="M473.43,53.254c-2.831-10.035-6.819,0-6.819,0C461.465,65.99,446.67,84.259,446.67,84.259c-3.334,4.288-1.158,5.948-1.158,5.948,3.474.932,4.632-1.832,4.632-1.832,8.619-12.479,18.525-33.192,18.525-33.192,1.158-1.415,2.959.258,2.959.258,2.187,4.245,23.544,31.262,23.544,31.262,2.573,6.432,5.789,4.76,5.789,4.76,1.93-1.415,0-3.988,0-3.988C495.686,85.288,473.43,53.254,473.43,53.254Z" transform="translate(-14.487 -18.842)" fill="#023f5f"/>
          <path id="Tracé_3285" data-name="Tracé 3285" d="M380.074,28.678c-2.037-2.562-9.407,4.87-8.527,12.3a22.722,22.722,0,0,1-3.34,5.806,13.116,13.116,0,0,0-4.321,11.613s-3.59,9.392-8.382,10.929c0,0-8.377-17.077-26.138-40.3,0,0-7.514-8.539-5.636-.341,0,0,25.275,33.643,28.691,43.889s7.343,0,7.343,0,17.706-34.326,19.1-35.521C378.864,37.046,382.11,31.239,380.074,28.678Z" transform="translate(-6.447 -18.842)" fill="#023f5f"/>
          <path id="Tracé_3286" data-name="Tracé 3286" d="M580.478,65.922s4.467,8.033,6.843,8.993c0,0,2.389.577,3.535-2.88,0,0,21.075-35.724,25.227-38.605a4.9,4.9,0,0,0,0-5.57s-4.495-2.594-5.144,5.186c0,0-8.408,9.411-9.831,14.788L589.985,68.769a2.228,2.228,0,0,1-3.553-.192S575.05,47.45,574.4,46.49c0,0-5.627-15.173-6.306-17.862,0,0-1.723-2.881-3.7-2.5,0,0-1.4.576-1.4,3.265,0,0,5.762,14.213,8.643,17.094C571.643,46.49,577.405,65.38,580.478,65.922Z" transform="translate(-16.643 -18.842)" fill="#023f5f"/>
          <path id="Tracé_3287" data-name="Tracé 3287" d="M349.668,47.176a4.051,4.051,0,0,0,4.947.466s2.706-3.733-2.987-4.946c0,0-2.987,0-3.08,1.586A2.524,2.524,0,0,0,349.668,47.176Z" transform="translate(-6.447 -18.842)" fill="#023f5f"/>
          <path id="Tracé_3288" data-name="Tracé 3288" d="M472.567,74.072c-1.018-.86-2.609-1.264-4.908.557,0,0-1.184,3.9,3.567,4.909,0,0,4.294-1.09,2.8-3.291A5.5,5.5,0,0,0,472.567,74.072Z" transform="translate(-14.686 -18.842)" fill="#023f5f"/>
          <path id="Tracé_3289" data-name="Tracé 3289" d="M509.291,45.241s.6-2.444-3.261-3.95c0,0-4.03-.975-3.26,3.95C502.77,45.241,506.436,50.191,509.291,45.241Z" transform="translate(-15.315 -18.842)" fill="#023f5f"/>
          <path id="Tracé_3290" data-name="Tracé 3290" d="M547.08,67.724s-4.052.673-1.877,4.218c0,0,3.169,1.773,5.331,0C550.534,71.942,551.722,66.692,547.08,67.724Z" transform="translate(-16.062 -18.842)" fill="#023f5f"/>
          <path id="Tracé_3291" data-name="Tracé 3291" d="M587.233,49.429s2.34-.186,2.752-2.141c0,0,1.249-3.536-3.59-4a2.8,2.8,0,0,0-2.233,3.072S583.789,49.149,587.233,49.429Z" transform="translate(-16.77 -18.842)" fill="#023f5f"/>
          <path id="Tracé_3292" data-name="Tracé 3292" d="M626.505,68.507s-3.722-.186-2.7,2.838c0,0-.652,1.536,2.7,2.838a3.865,3.865,0,0,0,2.979-3.071S629.577,68.693,626.505,68.507Z" transform="translate(-17.476 -18.842)" fill="#023f5f"/>
          <path id="Tracé_3293" data-name="Tracé 3293" d="M866.6,44.286s-.909-4.769-3.975-2.271c0,0-4.428,22.6-18.51,43.039,0,0-3.066,2.952-1.022,5.223a2.785,2.785,0,0,0,3.407-.795s4.429-.978,17.488-40.688c0,0,1.249-.716,1.59,0,0,0,1.7,12.64,6.927,17.068,0,0,.908.455.908,3.861a36.861,36.861,0,0,0,6.7,7.5s.568,0,0,2.044a11.856,11.856,0,0,0,7.836,10.22s2.952-.113-1.363-7.949C886.584,81.533,867.166,52.235,866.6,44.286Z" transform="translate(-21.71 -18.842)" fill="#023f5f"/>
          <path id="Tracé_3294" data-name="Tracé 3294" d="M694.6,28.678c-2.036-2.562-9.407,4.87-8.526,12.3a22.755,22.755,0,0,1-3.34,5.806,13.116,13.116,0,0,0-4.321,11.613s-3.59,9.392-8.382,10.929c0,0-8.378-17.077-26.139-40.3,0,0-7.514-8.539-5.635-.341,0,0,25.275,33.643,28.69,43.889s7.343,0,7.343,0S692,38.241,693.393,37.046C693.393,37.046,696.64,31.239,694.6,28.678Z" transform="translate(-18.039 -18.842)" fill="#023f5f"/>
          <path id="Tracé_3295" data-name="Tracé 3295" d="M766.512,30.215,748.923,66.932c-1.708,1.537-2.562,0-2.562,0L714.6,28.507a2.757,2.757,0,0,0-3.458-.545c-1.068.992,1.121,3.619,1.121,3.619L742.945,68.81c2.391,3.928,5.124,4.44,5.124,4.44A2.883,2.883,0,0,0,750.46,71.2c.17-5.806,20.834-41.157,20.834-41.157C769.928,25.262,766.512,30.215,766.512,30.215Z" transform="translate(-19.4 -18.842)" fill="#023f5f"/>
          <path id="Tracé_3296" data-name="Tracé 3296" d="M930.613,33.43a4.9,4.9,0,0,0,0-5.57s-4.495-2.594-5.145,5.186c0,0-8.408,9.411-9.831,14.788L904.514,68.769a2.228,2.228,0,0,1-3.553-.192S889.579,47.45,888.932,46.49c0,0-5.626-15.173-6.3-17.862,0,0-1.723-2.881-3.7-2.5,0,0-1.4.576-1.4,3.265,0,0,5.762,14.213,8.643,17.094,0,0,5.762,18.89,8.835,19.432,0,0,4.466,8.033,6.842,8.993,0,0,2.39.577,3.536-2.88C905.386,72.035,926.461,36.311,930.613,33.43Z" transform="translate(-22.415 -18.842)" fill="#023f5f"/>
          <path id="Tracé_3297" data-name="Tracé 3297" d="M664.2,47.176a4.049,4.049,0,0,0,4.946.466s2.707-3.733-2.986-4.946c0,0-2.987,0-3.08,1.586A2.524,2.524,0,0,0,664.2,47.176Z" transform="translate(-18.186 -18.842)" fill="#023f5f"/>
          <path id="Tracé_3298" data-name="Tracé 3298" d="M739.54,46.026s5.669,1.73,6.068-2.129c0,0,1.039-3.594-4.538-3.86a2.946,2.946,0,0,0-2.383,3.188Z" transform="translate(-19.542 -18.842)" fill="#023f5f"/>
          <path id="Tracé_3299" data-name="Tracé 3299" d="M861.61,67.724s-4.053.673-1.877,4.218c0,0,3.168,1.773,5.331,0C865.064,71.942,866.252,66.692,861.61,67.724Z" transform="translate(-21.692 -18.842)" fill="#023f5f"/>
          <path id="Tracé_3300" data-name="Tracé 3300" d="M901.762,49.429s2.34-.186,2.752-2.141c0,0,1.25-3.536-3.589-4a2.8,2.8,0,0,0-2.234,3.072S898.319,49.149,901.762,49.429Z" transform="translate(-22.399 -18.842)" fill="#023f5f"/>
          <path id="Tracé_3301" data-name="Tracé 3301" d="M941.035,68.507s-3.723-.186-2.7,2.838c0,0-.651,1.536,2.7,2.838a3.863,3.863,0,0,0,2.978-3.071S944.106,68.693,941.035,68.507Z" transform="translate(-23.105 -18.842)" fill="#023f5f"/>
          <path id="Tracé_3302" data-name="Tracé 3302" d="M1052.837,81.814s-12.351-10.678-29.2-35.122c0,0-3.6-3.73-5.146.772,0,0-6.432,18.783-14.151,32.42,0,0-2.573,3.731-3.474,4.117,0,0-2.573,3.86,0,5.918s6.175-7.59,6.175-7.59l9.778-20.473a34.929,34.929,0,0,0,2.315-6.673c.772-3.473,3.474-5.66,5.918-2.959s20.07,29.333,29.847,35.379c0,0,2.059,1.287,1.544-1.543S1052.837,81.814,1052.837,81.814Z" transform="translate(-24.685 -18.842)" fill="#023f5f"/>
          <path id="Tracé_3303" data-name="Tracé 3303" d="M1183.579,44.286s-.908-4.769-3.974-2.271c0,0-4.429,22.6-18.51,43.039,0,0-3.066,2.952-1.022,5.223a2.784,2.784,0,0,0,3.406-.795s4.429-.978,17.489-40.688c0,0,1.249-.716,1.589,0,0,0,1.7,12.64,6.927,17.068,0,0,.909.455.909,3.861a36.862,36.862,0,0,0,6.7,7.5s.568,0,0,2.044a11.856,11.856,0,0,0,7.835,10.22s2.953-.113-1.363-7.949C1203.565,81.533,1184.147,52.235,1183.579,44.286Z" transform="translate(-27.505 -18.842)" fill="#023f5f"/>
          <path id="Tracé_3304" data-name="Tracé 3304" d="M1163.246,26.8c-1.707.171-3.074,5.465-3.074,5.465-4.781,4.782-9.221,18.146-9.221,18.146l-7.515,20.62a2.147,2.147,0,0,1-3.074-.8l-27.153-41.207c-2.562-.17-1.364,1.708-1.364,1.708l8.878,14.516c1.781,7.524,5.465,9.734,5.465,9.734,3.928,4.1,13.321,19.639,13.321,19.639a8.081,8.081,0,0,0,3.586,3.074,3.715,3.715,0,0,0,2.049-1.195c.512-5.465,20.664-47.817,20.664-47.817C1165.637,26.458,1163.246,26.8,1163.246,26.8Z" transform="translate(-26.713 -18.842)" fill="#023f5f"/>
          <path id="Tracé_3305" data-name="Tracé 3305" d="M1031.1,74.874s-3.595-1.106-4.333,1.383c0,0-.808,2.766,1.062,3.595,0,0,.782,1.383,4.47.646C1032.3,80.5,1035.892,77.732,1031.1,74.874Z" transform="translate(-24.698 -18.842)" fill="#023f5f"/>
          <path id="Tracé_3306" data-name="Tracé 3306" d="M1056.522,46.026s5.668,1.73,6.068-2.129c0,0,1.038-3.594-4.539-3.86a2.946,2.946,0,0,0-2.382,3.188Z" transform="translate(-25.219 -18.842)" fill="#023f5f"/>
          <path id="Tracé_3307" data-name="Tracé 3307" d="M1140.8,45.241s.6-2.444-3.261-3.95c0,0-4.03-.975-3.26,3.95C1134.281,45.241,1137.948,50.191,1140.8,45.241Z" transform="translate(-26.621 -18.842)" fill="#023f5f"/>
          <path id="Tracé_3308" data-name="Tracé 3308" d="M1178.592,67.724s-4.053.673-1.878,4.218c0,0,3.169,1.773,5.331,0C1182.045,71.942,1183.233,66.692,1178.592,67.724Z" transform="translate(-27.366 -18.842)" fill="#023f5f"/>
          <path id="Tracé_3309" data-name="Tracé 3309" d="M1218.744,49.429s2.34-.186,2.752-2.141c0,0,1.249-3.536-3.59-4a2.8,2.8,0,0,0-2.233,3.072S1215.3,49.149,1218.744,49.429Z" transform="translate(-28.073 -18.842)" fill="#023f5f"/>
          <path id="Tracé_3310" data-name="Tracé 3310" d="M1258.017,68.507s-3.723-.186-2.7,2.838c0,0-.652,1.536,2.7,2.838a3.864,3.864,0,0,0,2.978-3.071S1261.088,68.693,1258.017,68.507Z" transform="translate(-28.778 -18.842)" fill="#023f5f"/>
          <path id="Tracé_3311" data-name="Tracé 3311" d="M1324.7,33.95a4.9,4.9,0,0,0,0-5.57s-4.5-2.594-5.145,5.185c0,0-8.408,9.412-9.831,14.789L1298.6,69.289a2.228,2.228,0,0,1-3.553-.192s-11.382-21.127-12.029-22.087c0,0-5.626-15.173-6.306-17.862,0,0-1.722-2.881-3.7-2.5,0,0-1.4.576-1.4,3.265,0,0,5.761,14.213,8.642,17.094,0,0,5.762,18.889,8.835,19.432,0,0,4.467,8.033,6.843,8.993,0,0,2.389.576,3.535-2.881C1299.475,72.554,1320.551,36.83,1324.7,33.95Z" transform="translate(-29.647 -18.842)" fill="#023f5f"/>
          <path id="Tracé_3312" data-name="Tracé 3312" d="M1295.852,49.948s2.34-.186,2.752-2.14c0,0,1.25-3.536-3.589-4a2.8,2.8,0,0,0-2.234,3.071S1292.409,49.669,1295.852,49.948Z" transform="translate(-29.453 -18.842)" fill="#023f5f"/>
          <path id="Tracé_3313" data-name="Tracé 3313" d="M1260.966,44.286s-.909-4.769-3.975-2.271c0,0-4.429,22.6-18.51,43.039,0,0-3.066,2.952-1.022,5.223a2.785,2.785,0,0,0,3.407-.795s4.428-.978,17.488-40.688c0,0,1.249-.716,1.589,0,0,0,1.7,12.64,6.927,17.068,0,0,.909.455.909,3.861a36.859,36.859,0,0,0,6.7,7.5s.568,0,0,2.044a11.857,11.857,0,0,0,7.835,10.22s2.953-.113-1.362-7.949C1280.952,81.533,1261.533,52.235,1260.966,44.286Z" transform="translate(-28.919 -18.842)" fill="#023f5f"/>
          <path id="Tracé_3314" data-name="Tracé 3314" d="M1108.484,74.874s-3.595-1.106-4.332,1.383c0,0-.809,2.766,1.061,3.595,0,0,.782,1.383,4.47.646C1109.683,80.5,1113.278,77.732,1108.484,74.874Z" transform="translate(-26.084 -18.842)" fill="#023f5f"/>
          <path id="Tracé_3315" data-name="Tracé 3315" d="M1447.2,81.814s-12.351-10.678-29.2-35.122c0,0-3.6-3.73-5.146.772,0,0-6.433,18.783-14.152,32.42,0,0-2.573,3.731-3.473,4.117,0,0-2.573,3.86,0,5.918s6.175-7.59,6.175-7.59l9.777-20.473a34.978,34.978,0,0,0,2.316-6.673c.772-3.473,3.474-5.66,5.918-2.959s20.07,29.333,29.847,35.379c0,0,2.059,1.287,1.544-1.543S1447.2,81.814,1447.2,81.814Z" transform="translate(-31.933 -18.842)" fill="#023f5f"/>
          <path id="Tracé_3316" data-name="Tracé 3316" d="M1577.947,44.286s-.908-4.769-3.975-2.271c0,0-4.428,22.6-18.509,43.039,0,0-3.067,2.952-1.022,5.223a2.784,2.784,0,0,0,3.406-.795s4.429-.978,17.488-40.688c0,0,1.249-.716,1.59,0,0,0,1.7,12.64,6.927,17.068,0,0,.908.455.908,3.861a36.859,36.859,0,0,0,6.7,7.5s.568,0,0,2.044a11.858,11.858,0,0,0,7.836,10.22s2.952-.113-1.363-7.949C1597.933,81.533,1578.515,52.235,1577.947,44.286Z" transform="translate(-34.713 -18.842)" fill="#023f5f"/>
          <path id="Tracé_3317" data-name="Tracé 3317" d="M1515.091,45.243c1.781,7.524,5.465,9.734,5.465,9.734,3.928,4.1,13.32,19.639,13.32,19.639a8.081,8.081,0,0,0,3.587,3.074,3.715,3.715,0,0,0,2.049-1.195c.512-5.465,20.664-47.817,20.664-47.817-.171-2.22-2.562-1.879-2.562-1.879-1.708.171-3.074,5.465-3.074,5.465-4.782,4.782-9.222,18.146-9.222,18.146L1537.8,71.03a2.147,2.147,0,0,1-3.074-.8l-27.153-41.207c-2.562-.17-1.364,1.708-1.364,1.708Z" transform="translate(-33.951 -18.842)" fill="#023f5f"/>
          <path id="Tracé_3318" data-name="Tracé 3318" d="M1641.962,33.43a4.9,4.9,0,0,0,0-5.57s-4.495-2.594-5.144,5.186c0,0-8.408,9.411-9.832,14.788l-11.122,20.935a2.228,2.228,0,0,1-3.553-.192s-11.383-21.127-12.03-22.087c0,0-5.626-15.173-6.305-17.862,0,0-1.723-2.881-3.7-2.5,0,0-1.4.576-1.4,3.265,0,0,5.762,14.213,8.643,17.094,0,0,5.762,18.89,8.835,19.432,0,0,4.467,8.033,6.843,8.993,0,0,2.389.577,3.535-2.88C1616.735,72.035,1637.81,36.311,1641.962,33.43Z" transform="translate(-41.241 -18.842)" fill="#023f5f"/>
          <path id="Tracé_3319" data-name="Tracé 3319" d="M1375.547,47.176a4.049,4.049,0,0,0,4.946.466s2.707-3.733-2.986-4.946c0,0-2.987,0-3.08,1.586A2.524,2.524,0,0,0,1375.547,47.176Z" transform="translate(-30.923 -18.842)" fill="#023f5f"/>
          <path id="Tracé_3320" data-name="Tracé 3320" d="M1425.466,74.874s-3.595-1.106-4.333,1.383c0,0-.809,2.766,1.062,3.595,0,0,.782,1.383,4.469.646C1426.664,80.5,1430.26,77.732,1425.466,74.874Z" transform="translate(-31.76 -18.842)" fill="#023f5f"/>
          <path id="Tracé_3321" data-name="Tracé 3321" d="M1450.889,46.026s5.669,1.73,6.068-2.129c0,0,1.039-3.594-4.538-3.86a2.946,2.946,0,0,0-2.383,3.188Z" transform="translate(-32.281 -18.842)" fill="#023f5f"/>
          <path id="Tracé_3322" data-name="Tracé 3322" d="M1498.445,74.072c-1.017-.86-2.609-1.264-4.907.557,0,0-1.184,3.9,3.566,4.909,0,0,4.3-1.09,2.8-3.291A5.512,5.512,0,0,0,1498.445,74.072Z" transform="translate(-33.055 -18.842)" fill="#023f5f"/>
          <path id="Tracé_3323" data-name="Tracé 3323" d="M1535.169,45.241s.6-2.444-3.26-3.95c0,0-4.031-.975-3.26,3.95C1528.649,45.241,1532.315,50.191,1535.169,45.241Z" transform="translate(-33.682 -18.842)" fill="#023f5f"/>
          <path id="Tracé_3324" data-name="Tracé 3324" d="M1572.959,67.724s-4.053.673-1.877,4.218c0,0,3.169,1.773,5.331,0C1576.413,71.942,1577.6,66.692,1572.959,67.724Z" transform="translate(-40.27 -18.842)" fill="#023f5f"/>
          <path id="Tracé_3325" data-name="Tracé 3325" d="M1613.112,49.429s2.34-.186,2.752-2.141c0,0,1.249-3.536-3.59-4a2.8,2.8,0,0,0-2.234,3.072S1609.668,49.149,1613.112,49.429Z" transform="translate(-41.241 -18.842)" fill="#023f5f"/>
          <path id="Tracé_3326" data-name="Tracé 3326" d="M1761.734,81.814s-12.35-10.678-29.2-35.122c0,0-3.6-3.73-5.147.772,0,0-6.432,18.783-14.151,32.42,0,0-2.573,3.731-3.474,4.117,0,0-2.573,3.86,0,5.918s6.175-7.59,6.175-7.59l9.778-20.473a34.973,34.973,0,0,0,2.316-6.673c.772-3.473,3.473-5.66,5.918-2.959s20.069,29.333,29.847,35.379c0,0,2.058,1.287,1.543-1.543S1761.734,81.814,1761.734,81.814Z" transform="translate(-41.241 -18.842)" fill="#023f5f"/>
          <path id="Tracé_3327" data-name="Tracé 3327" d="M1892.477,44.286s-.909-4.769-3.975-2.271c0,0-4.429,22.6-18.51,43.039,0,0-3.066,2.952-1.022,5.223a2.785,2.785,0,0,0,3.407-.795s4.429-.978,17.488-40.688c0,0,1.249-.716,1.59,0,0,0,1.7,12.64,6.927,17.068,0,0,.908.455.908,3.861a36.859,36.859,0,0,0,6.7,7.5s.568,0,0,2.044a11.857,11.857,0,0,0,7.835,10.22s2.953-.113-1.362-7.949C1912.463,81.533,1893.044,52.235,1892.477,44.286Z" transform="translate(-41.241 -18.842)" fill="#023f5f"/>
          <path id="Tracé_3328" data-name="Tracé 3328" d="M1720.482,28.678c-2.037-2.562-9.407,4.87-8.526,12.3a22.754,22.754,0,0,1-3.34,5.806,13.116,13.116,0,0,0-4.321,11.613s-3.591,9.392-8.382,10.929c0,0-8.378-17.077-26.139-40.3,0,0-7.514-8.539-5.636-.341,0,0,25.275,33.643,28.691,43.889s7.343,0,7.343,0,17.707-34.326,19.1-35.521C1719.272,37.046,1722.518,31.239,1720.482,28.678Z" transform="translate(-41.241 -18.842)" fill="#023f5f"/>
          <path id="Tracé_3329" data-name="Tracé 3329" d="M1872.144,26.8c-1.708.171-3.074,5.465-3.074,5.465-4.782,4.782-9.222,18.146-9.222,18.146l-7.514,20.62a2.147,2.147,0,0,1-3.074-.8l-27.154-41.207c-2.561-.17-1.364,1.708-1.364,1.708l8.878,14.516c1.782,7.524,5.465,9.734,5.465,9.734,3.928,4.1,13.321,19.639,13.321,19.639a8.081,8.081,0,0,0,3.586,3.074,3.71,3.71,0,0,0,2.049-1.195c.513-5.465,20.664-47.817,20.664-47.817C1874.534,26.458,1872.144,26.8,1872.144,26.8Z" transform="translate(-41.241 -18.842)" fill="#023f5f"/>
          <path id="Tracé_3330" data-name="Tracé 3330" d="M1956.491,27.86s-4.495-2.594-5.144,5.186c0,0-8.408,9.411-9.831,14.788l-11.123,20.935a2.228,2.228,0,0,1-3.553-.192s-11.382-21.127-12.029-22.087c0,0-5.626-15.173-6.306-17.862,0,0-1.722-2.881-3.7-2.5,0,0-1.4.576-1.4,3.265,0,0,5.762,14.213,8.643,17.094,0,0,5.762,18.89,8.835,19.432,0,0,4.467,8.033,6.843,8.993,0,0,2.389.577,3.535-2.88,0,0,21.076-35.724,25.227-38.605A4.9,4.9,0,0,0,1956.491,27.86Z" transform="translate(-41.241 -18.842)" fill="#023f5f"/>
          <path id="Tracé_3331" data-name="Tracé 3331" d="M1690.076,47.176a4.051,4.051,0,0,0,4.947.466s2.707-3.733-2.987-4.946c0,0-2.986,0-3.08,1.586A2.525,2.525,0,0,0,1690.076,47.176Z" transform="translate(-41.241 -18.842)" fill="#023f5f"/>
          <path id="Tracé_3332" data-name="Tracé 3332" d="M1739.995,74.874s-3.595-1.106-4.332,1.383c0,0-.809,2.766,1.061,3.595,0,0,.782,1.383,4.47.646C1741.194,80.5,1744.789,77.732,1739.995,74.874Z" transform="translate(-41.241 -18.842)" fill="#023f5f"/>
          <path id="Tracé_3333" data-name="Tracé 3333" d="M1812.975,74.072c-1.017-.86-2.609-1.264-4.907.557,0,0-1.184,3.9,3.566,4.909,0,0,4.294-1.09,2.8-3.291A5.513,5.513,0,0,0,1812.975,74.072Z" transform="translate(-41.241 -18.842)" fill="#023f5f"/>
          <path id="Tracé_3334" data-name="Tracé 3334" d="M1849.7,45.241s.6-2.444-3.26-3.95c0,0-4.031-.975-3.261,3.95C1843.178,45.241,1846.845,50.191,1849.7,45.241Z" transform="translate(-41.241 -18.842)" fill="#023f5f"/>
          <path id="Tracé_3335" data-name="Tracé 3335" d="M1887.489,67.724s-4.053.673-1.877,4.218c0,0,3.168,1.773,5.331,0C1890.943,71.942,1892.131,66.692,1887.489,67.724Z" transform="translate(-41.241 -18.842)" fill="#023f5f"/>
          <path id="Tracé_3336" data-name="Tracé 3336" d="M1927.641,49.429s2.34-.186,2.752-2.141c0,0,1.25-3.536-3.59-4a2.8,2.8,0,0,0-2.233,3.072S1924.2,49.149,1927.641,49.429Z" transform="translate(-41.241 -18.842)" fill="#023f5f"/>
          <path id="Tracé_3337" data-name="Tracé 3337" d="M947.46,48.614s-2.151-9.7-6.016-8.646-2.806,8.293-2.806,8.293-5.116,15.879-8.292,20.114-6.528,3-5.117,12.88c0,0-7.94,6.351-5.646,10.762s5.646-3,5.646-3l16.585-37.934s2.294-3.529,3.7,0c.313.782,1.252,3.161,2.521,6.384a44.032,44.032,0,0,1,.031-7.477C947.682,49.111,947.46,48.614,947.46,48.614Z" transform="translate(-22.961 -18.842)" fill="#023f5f"/>
          <path id="Tracé_3338" data-name="Tracé 3338" d="M961.137,80.424a24.89,24.89,0,0,1-3.419-2.376l-.043-.037-.045-.035a21.7,21.7,0,0,1-2.424-2.286c3.149,8.012,5.84,14.863,5.84,14.863s3.881,1.464,2.294-4.182C963.028,85.263,962.223,83.128,961.137,80.424Z" transform="translate(-23.433 -18.842)" fill="#023f5f"/>
          <path id="Tracé_3339" data-name="Tracé 3339" d="M776.445,62.475A209.931,209.931,0,0,1,761.2,84.259c-3.334,4.288-1.158,5.948-1.158,5.948,3.473.932,4.631-1.832,4.631-1.832a219.351,219.351,0,0,0,12.05-20.434l-.028-.255A44.059,44.059,0,0,1,776.445,62.475Z" transform="translate(-19.985 -18.842)" fill="#023f5f"/>
          <path id="Tracé_3340" data-name="Tracé 3340" d="M807.945,80l-.4.133-2.514.621c2.747,3.515,4.673,5.952,4.673,5.952,2.573,6.432,5.789,4.76,5.789,4.76,1.93-1.415,0-3.988,0-3.988C814.016,86.864,811.215,83.919,807.945,80Z" transform="translate(-20.763 -18.842)" fill="#023f5f"/>
          <path id="Tracé_3341" data-name="Tracé 3341" d="M531.735,26.8c-1.707.171-3.074,5.465-3.074,5.465-4.781,4.782-9.222,18.146-9.222,18.146l-7.514,20.62a2.147,2.147,0,0,1-3.074-.8L484.916,33.9c-.747.305-1.478.556-2.173.764l6.469,10.577c1.781,7.524,5.465,9.734,5.465,9.734,3.928,4.1,13.32,19.639,13.32,19.639a8.087,8.087,0,0,0,3.587,3.074,3.715,3.715,0,0,0,2.049-1.195c.512-5.465,20.664-47.817,20.664-47.817C534.126,26.458,531.735,26.8,531.735,26.8Z" transform="translate(-15.159 -18.842)" fill="#023f5f"/>
          <path id="Tracé_3342" data-name="Tracé 3342" d="M568.256,85.885a26.7,26.7,0,0,1,3.961-4.043c-.058-.107-.1-.2-.163-.309,0,0-19.418-29.3-19.986-37.247,0,0-.908-4.769-3.974-2.271,0,0-4.429,22.6-18.51,43.039,0,0-3.066,2.952-1.022,5.223a2.785,2.785,0,0,0,3.407-.795s4.428-.978,17.487-40.688c0,0,1.25-.716,1.59,0,0,0,1.7,12.64,6.927,17.068,0,0,.909.455.909,3.861a36.862,36.862,0,0,0,6.7,7.5s.567,0,0,2.044A12.05,12.05,0,0,0,568.256,85.885Z" transform="translate(-15.95 -18.842)" fill="#023f5f"/>
          <path id="Tracé_3344" data-name="Tracé 3344" d="M55.45,48.393c3.218-6.017,5.922-10.909,6.432-11.347,0,0,3.247-5.807,1.21-8.368s-9.407,4.87-8.526,12.3a30.6,30.6,0,0,1-1.655,3.416A22.325,22.325,0,0,1,55.45,48.393Z" transform="translate(-6.447 -18.842)" fill="#023f5f"/>
          <path id="Tracé_3345" data-name="Tracé 3345" d="M214.754,26.8c-1.708.171-3.074,5.465-3.074,5.465-4.782,4.782-9.222,18.146-9.222,18.146l-7.514,20.62a2.147,2.147,0,0,1-3.074-.8l-21.68-32.9a21.873,21.873,0,0,1-.977,2.985l3.018,4.933c1.781,7.524,5.464,9.734,5.464,9.734,3.928,4.1,13.321,19.639,13.321,19.639A8.082,8.082,0,0,0,194.6,77.69a3.715,3.715,0,0,0,2.05-1.195c.512-5.465,20.663-47.817,20.663-47.817C217.145,26.458,214.754,26.8,214.754,26.8Z" transform="translate(-6.447 -18.842)" fill="#023f5f"/>
          <path id="Tracé_3346" data-name="Tracé 3346" d="M421.326,81.814s-.155-.135-.438-.392q-2.55-.067-4.812-.283a39.851,39.851,0,0,0,7.308,6.464s2.059,1.287,1.544-1.543S421.326,81.814,421.326,81.814Z" transform="translate(-13.773 -18.842)" fill="#023f5f"/>
          <path id="Tracé_3347" data-name="Tracé 3347" d="M386.734,51.08l.025-.25-.017-.25a16.3,16.3,0,0,0-.254-1.728c-1.635,4.577-7.2,19.607-13.663,31.032,0,0-2.574,3.731-3.474,4.117,0,0-2.573,3.86,0,5.918s6.175-7.59,6.175-7.59L385.3,61.856a36.221,36.221,0,0,0,1.915-5.112,42.659,42.659,0,0,1-.509-4.9A5.275,5.275,0,0,1,386.734,51.08Z" transform="translate(-6.447 -18.842)" fill="#023f5f"/>
          <path id="Tracé_3348" data-name="Tracé 3348" d="M708.067,52.224c1.062,1.174,4.989,6.864,9.892,13.419.269-.017.531-.047.8-.055s.524-.012.786-.012c.438,0,.876.036,1.314.058-4.141-5.038-8.958-11.32-14.212-18.942,0,0-3.6-3.73-5.146.772,0,0-6.433,18.783-14.152,32.42,0,0-2.573,3.731-3.474,4.117,0,0-2.573,3.86,0,5.918s6.176-7.59,6.176-7.59l9.777-20.473a34.97,34.97,0,0,0,2.316-6.673C702.921,51.71,705.622,49.523,708.067,52.224Z" transform="translate(-18.738 -18.842)" fill="#023f5f"/>
          <path id="Tracé_3349" data-name="Tracé 3349" d="M735.855,81.814s-.9-.782-2.54-2.391a35.441,35.441,0,0,1-.826,3.653,32.654,32.654,0,0,0,5.425,4.527s2.058,1.287,1.544-1.543S735.855,81.814,735.855,81.814Z" transform="translate(-19.432 -18.842)" fill="#023f5f"/>
          <path id="Tracé_3350" data-name="Tracé 3350" d="M288.672,39.648c-1.992,2.756-3.928,5.851-4.546,8.186L273,68.769a2.227,2.227,0,0,1-3.552-.192S258.068,47.45,257.421,46.49c0,0-5.626-15.173-6.3-17.862,0,0-1.723-2.881-3.7-2.5,0,0-1.4.576-1.4,3.265,0,0,5.762,14.213,8.643,17.094,0,0,5.761,18.89,8.835,19.432,0,0,4.466,8.033,6.842,8.993,0,0,2.39.577,3.536-2.88,0,0,14.266-24.181,21.634-34.354A21.748,21.748,0,0,1,288.672,39.648Z" transform="translate(-6.447 -18.842)" fill="#023f5f"/>
          <path id="Tracé_3351" data-name="Tracé 3351" d="M796.5,33.4q1.05-.338,2.2-.629l-2.473-3.754c-2.562-.17-1.364,1.708-1.364,1.708Z" transform="translate(-20.523 -18.842)" fill="#023f5f"/>
          <path id="Tracé_3352" data-name="Tracé 3352" d="M846.265,26.8c-1.708.171-3.074,5.465-3.074,5.465-4.782,4.782-9.222,18.146-9.222,18.146l-7.514,20.62a2.147,2.147,0,0,1-3.074-.8l-1.123-1.7a23.473,23.473,0,0,1-1.715,2.87c1.2,1.932,1.984,3.224,1.984,3.224a8.082,8.082,0,0,0,3.586,3.074,3.715,3.715,0,0,0,2.05-1.195c.512-5.465,20.663-47.817,20.663-47.817C848.656,26.458,846.265,26.8,846.265,26.8Z" transform="translate(-21.17 -18.842)" fill="#023f5f"/>
          <path id="Tracé_3353" data-name="Tracé 3353" d="M1497.507,55.441c1.428,2.771,11.018,15.238,17.509,23.566a19.91,19.91,0,0,1,2.646-1c-8.214-10.16-18.354-24.751-18.354-24.751-2.83-10.035-6.818,0-6.818,0-5.146,12.736-19.941,31.005-19.941,31.005-3.334,4.288-1.158,5.948-1.158,5.948,3.474.932,4.631-1.832,4.631-1.832,8.62-12.479,18.526-33.192,18.526-33.192C1495.706,53.768,1497.507,55.441,1497.507,55.441Z" transform="translate(-33.201 -18.842)" fill="#023f5f"/>
          <path id="Tracé_3354" data-name="Tracé 3354" d="M1653.163,51.084s2.294-3.529,3.706,0c.553,1.382,3.057,7.743,5.9,14.965l.2.035.585-.129a9.093,9.093,0,0,1,1.963-.22c.277,0,.549.014.817.04-3.834-8.886-7.517-17.161-7.517-17.161s-2.151-9.7-6.016-8.646-2.8,8.293-2.8,8.293-5.117,15.879-8.293,20.114-6.528,3-5.117,12.88c0,0-7.939,6.351-5.646,10.762s5.646-3,5.646-3l2.963-6.776a20.65,20.65,0,0,1,4.92-11.254Z" transform="translate(-41.241 -18.842)" fill="#023f5f"/>
          <path id="Tracé_3355" data-name="Tracé 3355" d="M1671.729,78.558a33.985,33.985,0,0,1-1.547,6.361l2.213,5.634s3.882,1.464,2.294-4.182C1674.308,85.019,1673.2,82.141,1671.729,78.558Z" transform="translate(-41.241 -18.842)" fill="#023f5f"/>
          <path id="Tracé_3356" data-name="Tracé 3356" d="M1749.733,45.648c-.013-.044-.025-.088-.039-.131l-.116-.415a13.367,13.367,0,0,1-.246-5.881l-8.857-10.714a2.757,2.757,0,0,0-3.458-.545c-1.067.992,1.122,3.619,1.122,3.619Z" transform="translate(-41.241 -18.842)" fill="#023f5f"/>
          <path id="Tracé_3357" data-name="Tracé 3357" d="M1792.391,30.215l-3.45,7.2a22.058,22.058,0,0,1,1.853,1.389l.043.037.045.036c.288.227.548.489.824.731,3.117-5.545,5.467-9.565,5.467-9.565C1795.807,25.262,1792.391,30.215,1792.391,30.215Z" transform="translate(-41.241 -18.842)" fill="#023f5f"/>
          <path id="Tracé_3358" data-name="Tracé 3358" d="M1077.474,48.66a7.282,7.282,0,0,1-.63-.885,7.425,7.425,0,0,1-.82-1.967L1065.9,66.932c-1.708,1.537-2.561,0-2.561,0l-31.765-38.425a2.757,2.757,0,0,0-3.458-.545c-1.067.992,1.121,3.619,1.121,3.619l30.686,37.229c2.391,3.928,5.123,4.44,5.123,4.44a2.882,2.882,0,0,0,2.391-2.049c.084-2.859,5.137-12.879,10.244-22.317C1077.616,48.809,1077.541,48.739,1077.474,48.66Z" transform="translate(-25.133 -18.842)" fill="#023f5f"/>
          <path id="Tracé_3359" data-name="Tracé 3359" d="M1348.235,31.018a36.818,36.818,0,0,1,6.56,1.541c-.744-.995-1.5-2-2.28-3.02,0,0-7.514-8.539-5.636-.341C1346.879,29.2,1347.382,29.868,1348.235,31.018Z" transform="translate(-30.444 -18.842)" fill="#023f5f"/>
          <path id="Tracé_3360" data-name="Tracé 3360" d="M1403.6,33.563a9.5,9.5,0,0,1-.9-4.443l0-.316c-2.534-1.1-8.828,5.794-8.011,12.689a22.753,22.753,0,0,1-3.34,5.807,13.116,13.116,0,0,0-4.321,11.613s-3.59,9.392-8.382,10.929c0,0-1.416-2.885-4.313-7.89a44.013,44.013,0,0,1-.244,4.733l-.08.735.271.688a14.141,14.141,0,0,1,.918,4c.139.345.263.673.365.978,3.415,10.247,7.343,0,7.343,0s17.706-34.326,19.1-35.521A18.765,18.765,0,0,0,1403.6,33.563Z" transform="translate(-31.208 -18.842)" fill="#023f5f"/>
          <path id="Tracé_3361" data-name="Tracé 3361" d="M959.005,33.768a17.687,17.687,0,0,1,2.438.516l.4.116.412,0c.924.012,1.829.045,2.724.088q-1.962-2.675-4.1-5.474s-7.514-8.539-5.636-.341C955.241,28.678,956.722,30.65,959.005,33.768Z" transform="translate(-23.442 -18.842)" fill="#023f5f"/>
          <path id="Tracé_3362" data-name="Tracé 3362" d="M1011.585,28.678c-2.037-2.562-9.407,4.87-8.526,12.3a22.738,22.738,0,0,1-3.341,5.806,12.622,12.622,0,0,0-4.01,6.624c.176.579.343,1.171.5,1.782a45.432,45.432,0,0,1,1.071,5.834c5.276-10.09,12.244-23.242,13.1-23.974C1010.375,37.046,1013.621,31.239,1011.585,28.678Z" transform="translate(-24.233 -18.842)" fill="#023f5f"/>
          <path id="Tracé_3363" data-name="Tracé 3363" d="M1247.594,33.43a4.9,4.9,0,0,0,0-5.57s-4.495-2.594-5.144,5.186c0,0-8.408,9.411-9.831,14.788L1221.5,68.769a2.228,2.228,0,0,1-3.553-.192s-11.382-21.127-12.029-22.087c0,0-2.88-7.767-4.768-13.171-.063-.1-.129-.192-.188-.3a8.1,8.1,0,0,1-.532-1.112,8.58,8.58,0,0,1-.532-2.307c-.128-.406-.227-.741-.286-.976,0,0-1.723-2.881-3.7-2.5,0,0-1.4.576-1.4,3.265,0,0,5.762,14.213,8.643,17.094,0,0,5.762,18.89,8.835,19.432,0,0,4.467,8.033,6.843,8.993,0,0,2.389.577,3.535-2.88C1222.367,72.035,1243.442,36.311,1247.594,33.43Z" transform="translate(-28.232 -18.842)" fill="#023f5f"/>
          <path id="Tracé_3364" data-name="Tracé 3364" d="M1360.353,69.23a3.73,3.73,0,0,1-1.212-4.33,1.719,1.719,0,0,1,.172-.311c.43-.625,1.831-3.179.813-4.265a1.933,1.933,0,0,1-.193-.247c-.218-.123-1.125-.509-3.6-.391a1.84,1.84,0,0,1-.371-.022,3.6,3.6,0,0,1-2.443-1.768c-.787-1.365-.747-3.2.113-5.46a1.354,1.354,0,0,0,.126-.557c-.289-.412-2.245-.709-4.167-.492a4,4,0,0,1-3.623-.6c-1.184-.982-1.6-2.665-1.241-5a2.06,2.06,0,0,0-.638-1.372,2.873,2.873,0,0,0-2.293.157,4.922,4.922,0,0,1-4.085,1.624c-.974-.168-2.316-.843-3.174-3.1a1.763,1.763,0,0,1-.112-.557,3.042,3.042,0,0,0-.563-1.745c-.276-.133-.676-.3-1.076-.486a1.1,1.1,0,0,0-1.2.986s-.208,1.339.68,1.528a4.688,4.688,0,0,0,1.775.335s1.554.387-.478,2.4c0,0-1.584,2.3.573,1.854,0,0,3.368-1.32,1.868,1.155,0,0-2.49,2.438-.89,2.556a5.5,5.5,0,0,0,2.547-.58s3.1-1.059.323,2.98c0,0-1.9,2.881,1.13,1.815,0,0,4.4-2.628,3.3.663,0,0-2.4,3.736-1.1,3.636,0,0,1.355.168,3.622-2.207s-.365,4.3-.365,4.3-.721,2.642,1.3.942c0,0,4.324-4.3,3.446-.884l-1.445,2.771s-.677,2.08.961,1.463l1.842-1.345s3.573-3.016,1.873.973.447,2.158.447,2.158,3.131-3,3.4-1.537c0,0-1.236,3.871.2,4.243,0,0,1.27.383,2.77-1.232,0,0,2.851,3.433,4.8,3.432a1.309,1.309,0,0,0,.887-.322l-4.577-3.077C1360.427,69.287,1360.39,69.26,1360.353,69.23Z" transform="translate(-30.487 -18.842)" fill="#023f5f"/>
          <path id="Tracé_3365" data-name="Tracé 3365" d="M1085.124,41.205c.016-.02.033-.039.05-.057a2.034,2.034,0,0,1,2.41-.43.93.93,0,0,1,.16.11c.316.265,1.625,1.158,2.268.665a1.024,1.024,0,0,1,.143-.092,3.98,3.98,0,0,0,.4-1.931,1.038,1.038,0,0,1,.031-.2,1.957,1.957,0,0,1,1.085-1.23,3.447,3.447,0,0,1,2.952.347.745.745,0,0,0,.3.1,3.7,3.7,0,0,0,.485-2.232,2.184,2.184,0,0,1,.517-1.931,2.784,2.784,0,0,1,2.776-.41,1.112,1.112,0,0,0,.775-.274,1.558,1.558,0,0,0,.037-1.25,2.677,2.677,0,0,1-.666-2.3,2.323,2.323,0,0,1,1.847-1.556A.968.968,0,0,1,1101,28.5a1.659,1.659,0,0,0,.975-.212c.087-.145.2-.351.32-.558a.6.6,0,0,0-.473-.7s-.713-.183-.862.288c0,0-.337.715-.274.945,0,0-.293.821-1.278-.386,0,0-1.163-.979-1.033.214,0,0,.539,1.891-.724.95,0,0-1.19-1.477-1.337-.616a2.981,2.981,0,0,0,.179,1.409s.411,1.738-1.632.019c0,0-1.46-1.178-1.041.517,0,0,1.192,2.518-.533,1.75,0,0-1.895-1.492-1.912-.785,0,0-.161.725,1.006,2.078s-2.312-.424-2.312-.424-1.4-.526-.58.657c0,0,2.106,2.569.3,1.913l-1.426-.928s-1.09-.476-.843.444l.633,1.068s1.446,2.094-.626.964-1.192.129-1.192.129,1.463,1.856.653,1.925c0,0-2.031-.876-2.308-.117,0,0-.277.666.523,1.566,0,0-2.745,1.858-1.988,2.911Z" transform="translate(-25.832 -18.842)" fill="#023f5f"/>
          <path id="Tracé_3366" data-name="Tracé 3366" d="M1369.522,66.749a1,1,0,0,0,.068-.269,39.347,39.347,0,0,0-.057-9.511c-.88-6.945-3.594-12.361-7.848-15.661-.755-.671-9.019-7.667-23.568-5.909a1.38,1.38,0,0,0-.316.079,4.845,4.845,0,0,1-.642.143,12.912,12.912,0,0,1-2.508.134c-1.074-.128-4.373-.4-5.828.8-.388.315-2.248,2.091-1.148,6.51.006.024.014.049.02.073.5,1.617,1.755,6.269,1.516,8.353a1.2,1.2,0,0,0-.008.2c.019.492.533,12.081,6.172,17.908.65.763,6.849,7.38,25.8,7.351l0,0a12.108,12.108,0,0,0,4.12.81,6.124,6.124,0,0,0,3.711-1.1,4.484,4.484,0,0,0,.511-.444c2.017-2.05,1.169-5.382.228-7.25A7.986,7.986,0,0,1,1369.522,66.749Zm-2.095,7.783c-1.566,1.165-4.479.307-5.466-.122a1.357,1.357,0,0,0-.53-.111l0,.019c-18.623.084-23.98-6.351-24.031-6.416-.028-.035-.057-.069-.087-.1-4.731-4.848-5.395-15.046-5.452-16.106.282-2.992-1.371-8.492-1.618-9.292-.638-2.6.1-3.6.245-3.761a.183.183,0,0,1,.024-.025,2.93,2.93,0,0,1,1.239-.274,4.977,4.977,0,0,1,3.63-.733c2.016.959,2.452,3.5,2.552,4.459a1.89,1.89,0,0,0,.4.65,2.778,2.778,0,0,0,1.1-.787,1.771,1.771,0,0,1,.679-.491c2.411-.98,4.4-.967,5.922.038a5.6,5.6,0,0,1,2.23,4.382,1.755,1.755,0,0,1-.026.324,3.818,3.818,0,0,0-.015,1.87,1.193,1.193,0,0,0,.376-.045,1.85,1.85,0,0,1,.387-.1c.929-.121,5.658-.6,7.543,1.791a3.876,3.876,0,0,1,.4,4c-.565,1.483-.478,2.23-.347,2.444,4.227-.124,5.762,1.034,6.315,1.987,2.127,2.553.8,6.169-.479,8.169a1,1,0,0,0,.111.148l4.917,3.3a1.762,1.762,0,0,1,.559,2.3A2.386,2.386,0,0,1,1367.427,74.532Z" transform="translate(-30.535 -18.842)" fill="#023f5f"/>
          <path id="Tracé_3367" data-name="Tracé 3367" d="M994.534,72.71c-.5-1.617-1.756-6.268-1.517-8.353a1.214,1.214,0,0,0,.008-.2c-.019-.491-.533-12.08-6.171-17.907-.65-.764-6.848-7.38-25.8-7.352-1.091-.421-5.093-1.743-7.832.291a4.408,4.408,0,0,0-.512.443c-2.017,2.05-1.167,5.383-.227,7.25a8.037,8.037,0,0,1,.227,2.222,1.035,1.035,0,0,0-.069.268,39.517,39.517,0,0,0,.057,9.512c.88,6.944,3.593,12.36,7.848,15.66.672.6,7.275,6.2,18.953,6.187a38.453,38.453,0,0,0,4.613-.283,1.285,1.285,0,0,0,.316-.079,4.589,4.589,0,0,1,.643-.143,12.9,12.9,0,0,1,2.507-.133c1.074.128,4.373.4,5.828-.8.388-.314,2.247-2.091,1.147-6.509C994.548,72.759,994.539,72.734,994.534,72.71Zm-2.786,4.513a.147.147,0,0,1-.025.025,2.9,2.9,0,0,1-1.239.274,4.969,4.969,0,0,1-3.629.734c-2.014-.958-2.451-3.5-2.552-4.456a1.831,1.831,0,0,0-.408-.662,2.768,2.768,0,0,0-1.1.787,1.754,1.754,0,0,1-.68.49c-2.411.98-4.4.967-5.921-.038A5.6,5.6,0,0,1,973.964,70a1.856,1.856,0,0,1,.025-.324A3.794,3.794,0,0,0,974,67.8a1.194,1.194,0,0,0-.376.046,1.73,1.73,0,0,1-.388.1c-.928.121-5.656.6-7.541-1.79a3.884,3.884,0,0,1-.4-4.006c.565-1.482.478-2.229.348-2.444-4.228.123-5.763-1.034-6.315-1.987-2.123-2.553-.8-6.169.477-8.169a.925.925,0,0,0-.109-.148L954.783,46.1a1.762,1.762,0,0,1-.56-2.3,2.386,2.386,0,0,1,.581-2.482c1.564-1.165,4.477-.306,5.464.122a1.354,1.354,0,0,0,.536.111c18.623-.084,23.979,6.351,24.032,6.416.028.035.057.068.087.1,4.731,4.849,5.4,15.047,5.451,16.107-.282,2.992,1.371,8.492,1.618,9.292C992.631,76.057,991.888,77.061,991.748,77.223Z" transform="translate(-23.676 -18.842)" fill="#023f5f"/>
          <path id="Tracé_3368" data-name="Tracé 3368" d="M984.3,73.8v0h0Z" transform="translate(-23.878 -18.842)" fill="#023f5f"/>
          <path id="Tracé_3369" data-name="Tracé 3369" d="M989.97,73.038A4.7,4.7,0,0,0,988.2,72.7s-1.554-.387.48-2.4c0,0,1.582-2.3-.576-1.854,0,0-3.367,1.32-1.867-1.155,0,0,2.489-2.437.889-2.556a5.5,5.5,0,0,0-2.545.58s-3.106,1.059-.325-2.98c0,0,1.9-2.88-1.13-1.814,0,0-4.394,2.627-3.294-.663,0,0,2.4-3.737,1.1-3.637,0,0-1.354-.167-3.622,2.208s.365-4.3.365-4.3.72-2.641-1.3-.941c0,0-4.326,4.3-3.447.884l1.445-2.772s.677-2.079-.961-1.463l-1.842,1.346s-3.574,3.015-1.873-.974-.447-2.158-.447-2.158-3.131,3-3.4,1.537c0,0,1.236-3.871-.2-4.242,0,0-1.271-.383-2.771,1.232,0,0-3.883-4.68-5.683-3.11l4.576,3.077c.039.026.077.053.114.083a3.733,3.733,0,0,1,1.213,4.33,1.933,1.933,0,0,1-.173.312c-.432.624-1.832,3.178-.815,4.264a2,2,0,0,1,.193.247c.218.123,1.124.509,3.6.392a1.78,1.78,0,0,1,.372.022,3.6,3.6,0,0,1,2.443,1.767c.788,1.366.747,3.2-.112,5.461a1.368,1.368,0,0,0-.127.556c.291.412,2.246.709,4.168.492a4,4,0,0,1,3.624.6c1.183.982,1.6,2.665,1.241,5a2.054,2.054,0,0,0,.638,1.373,2.871,2.871,0,0,0,2.292-.157,4.918,4.918,0,0,1,4.085-1.624c.974.168,2.315.843,3.174,3.1a1.764,1.764,0,0,1,.112.556,3.047,3.047,0,0,0,.561,1.745h0c.28.133.678.3,1.079.485a1.1,1.1,0,0,0,1.2-.985S990.859,73.228,989.97,73.038Z" transform="translate(-23.691 -18.842)" fill="#023f5f"/>
          <path id="Tracé_3370" data-name="Tracé 3370" d="M1080.913,45.756c1,1.2,2.854.911,3.916.5a4.264,4.264,0,0,1,1.215-.006.6.6,0,0,0,.142.051,21.22,21.22,0,0,0,4.543.487c.2,0,.4,0,.611-.009,3.812-.113,6.887-1.3,8.9-3.431.4-.374,4.627-4.483,4.438-12.457a.74.74,0,0,0-.027-.175,5.342,5.342,0,0,1,.015-1.721c.125-.576.442-2.349-.129-3.2-.149-.228-1.014-1.329-3.466-.964l-.041.007a16.138,16.138,0,0,1-4.606.383.663.663,0,0,0-.109-.015c-.268-.02-6.573-.35-10.025,2.4-.447.313-4.358,3.324-5.337,13.592-.284.569-1.211,2.668-.253,4.258A2.637,2.637,0,0,0,1080.913,45.756Zm1.373-4a.764.764,0,0,0,.087-.284c.929-10.093,4.7-12.658,4.737-12.682.02-.013.039-.027.058-.042,2.876-2.309,8.435-2.134,9.013-2.109a17.477,17.477,0,0,0,5.119-.39c1.439-.209,1.945.245,2.024.33a.065.065,0,0,1,.013.015,1.563,1.563,0,0,1,.082.685,2.709,2.709,0,0,1,.209,2.005,3,3,0,0,1-2.551,1.148.994.994,0,0,0-.372.185,1.493,1.493,0,0,0,.368.64.989.989,0,0,1,.23.393,3.362,3.362,0,0,1-.332,3.206,3.044,3.044,0,0,1-2.491.978,1.023,1.023,0,0,1-.174-.031,2.063,2.063,0,0,0-1.012-.106.719.719,0,0,0,0,.206,1.033,1.033,0,0,1,.032.214c.016.51.028,3.092-1.366,3.992a2.109,2.109,0,0,1-2.192.008c-.769-.384-1.178-.376-1.3-.316-.155,2.3-.863,3.068-1.408,3.316-1.493,1.018-3.384.112-4.4-.688a.573.573,0,0,0-.085.052l-2.048,2.49h0a.958.958,0,0,1-1.28.185,1.3,1.3,0,0,1-1.316-.445C1081.386,43.8,1082,42.268,1082.286,41.755Z" transform="translate(-25.835 -18.842)" fill="#023f5f"/>
          <path id="Tracé_3371" data-name="Tracé 3371" d="M1667.6,71.1c-1-1.2-2.856-.911-3.917-.5a4.332,4.332,0,0,1-1.214.006.647.647,0,0,0-.142-.051,21.522,21.522,0,0,0-5.156-.468,15.02,15.02,0,0,0-5.628,1.182l-1.86.076a1.211,1.211,0,0,0,.084.906,9.425,9.425,0,0,0-1.5,1.266c-.4.374-4.626,4.483-4.438,12.457a.694.694,0,0,0,.028.175,5.408,5.408,0,0,1-.017,1.722c-.124.577-.443,2.35.129,3.2a2.862,2.862,0,0,0,2.53,1.029,6.291,6.291,0,0,0,.94-.074l.043-.007a16.094,16.094,0,0,1,4.6-.382.842.842,0,0,0,.111.014c.267.019,6.573.349,10.026-2.4.448-.313,4.357-3.324,5.335-13.593.286-.569,1.213-2.668.255-4.258A2.5,2.5,0,0,0,1667.6,71.1Zm-1.381,4a.75.75,0,0,0-.088.285c-.93,10.093-4.7,12.657-4.738,12.682-.018.012-.039.027-.058.042-2.875,2.308-8.434,2.133-9.013,2.108a17.5,17.5,0,0,0-5.118.39c-1.44.21-1.944-.244-2.023-.33l-.01-.015a1.578,1.578,0,0,1-.083-.685,2.7,2.7,0,0,1-.207-2.005,2.988,2.988,0,0,1,2.548-1.147,1.018,1.018,0,0,0,.374-.185,1.517,1.517,0,0,0-.369-.64.95.95,0,0,1-.229-.393,3.368,3.368,0,0,1,.329-3.206v0a2.965,2.965,0,0,1,2.288-.985c.1,0,.171.007.2.007a.993.993,0,0,1,.173.03,2.08,2.08,0,0,0,1.013.107.6.6,0,0,0,0-.206,1.04,1.04,0,0,1-.031-.215c-.016-.51-.029-3.092,1.365-3.992a2.107,2.107,0,0,1,2.191-.008c.774.384,1.184.376,1.306.317.155-2.3.862-3.069,1.407-3.317,1.5-1.019,3.387-.113,4.4.687a.47.47,0,0,0,.087-.051l2.048-2.49a.959.959,0,0,1,1.278-.182,1.3,1.3,0,0,1,1.314.444C1667.121,73.06,1666.5,74.59,1666.221,75.1Z" transform="translate(-41.241 -18.842)" fill="#023f5f"/>
          <path id="Tracé_3372" data-name="Tracé 3372" d="M1643.975,91.071h0Z" transform="translate(-41.241 -18.842)" fill="#023f5f"/>
          <path id="Tracé_3373" data-name="Tracé 3373" d="M1646.69,89.826h0Z" transform="translate(-41.241 -18.842)" fill="#023f5f"/>
          <path id="Tracé_3374" data-name="Tracé 3374" d="M1204.858,30.779c1.178,2.047,4.008,2.106,5.693,1.772a6.5,6.5,0,0,1,1.809.308.918.918,0,0,0,.2.113,32.422,32.422,0,0,0,7.547,2.041h0a26.691,26.691,0,0,0,3.841.287,16.911,16.911,0,0,0,10.286-3.067c.615-.4,6.387-4.329,8.987-13.388h-4.9a3.651,3.651,0,0,1-.783.962,4.6,4.6,0,0,1-3.96.8,1.409,1.409,0,0,1-.25-.091,3.112,3.112,0,0,0-1.478-.422,1,1,0,0,0-.048.307,1.342,1.342,0,0,1-.008.329c-.109.761-.767,4.612-3.073,5.58a3.188,3.188,0,0,1-3.261-.561c-1.05-.773-1.659-.869-1.859-.812-.83,3.376-2.083,4.338-2.958,4.566-2.491,1.129-5.066-.718-6.366-2.171a.713.713,0,0,0-.141.055l-3.7,3.168a1.447,1.447,0,0,1-1.948-.063,1.962,1.962,0,0,1-1.839-1c-.575-1.5.743-3.612,1.3-4.3a1.1,1.1,0,0,0,.2-.4,55.7,55.7,0,0,1,1.962-5.944h-2.334c-.587,1.548-1.149,3.265-1.673,5.165-.572.767-2.5,3.652-1.489,6.267A3.638,3.638,0,0,0,1204.858,30.779Z" transform="translate(-28.239 -18.842)" fill="#023f5f"/>
          <path id="Tracé_3375" data-name="Tracé 3375" d="M474,22.938a1.119,1.119,0,0,0-.72.4,1.56,1.56,0,0,0,.173,1.238,2.675,2.675,0,0,1,1.037,2.155,2.319,2.319,0,0,1-1.561,1.842.951.951,0,0,1-.3.083,1.643,1.643,0,0,0-.926.372c-.061.155-.135.376-.222.6a.6.6,0,0,0,.581.616l.08,0c.192,0,.668-.04.723-.429a2.546,2.546,0,0,0,.113-.977s.152-.858,1.323.168c0,0,1.311.772.985-.382,0,0-.845-1.775.555-1.057,0,0,1.422,1.258,1.422.385a2.99,2.99,0,0,0-.412-1.361s-.694-1.645,1.606-.29c0,0,1.636.918.941-.682,0,0-1.594-2.285.235-1.814,0,0,2.116,1.155,2.016.455,0,0,.038-.741-1.337-1.882s2.35.033,2.35.033,1.461.288.461-.743c0,0-2.5-2.184-.612-1.838l1.559.679s1.157.288.757-.578l-.8-.949s-.05-.053-.125-.136h-7.153a6.427,6.427,0,0,0,.108,1.239,2.177,2.177,0,0,1-.189,1.99A2.782,2.782,0,0,1,474,22.938Z" transform="translate(-14.785 -18.842)" fill="#023f5f"/>
          <path id="Tracé_3376" data-name="Tracé 3376" d="M1786.638,70.231a3.733,3.733,0,0,1-1.211-4.33,1.781,1.781,0,0,1,.172-.311c.43-.624,1.83-3.179.814-4.265a1.642,1.642,0,0,1-.193-.247c-.218-.124-1.123-.51-3.6-.392a1.84,1.84,0,0,1-.371-.022,3.6,3.6,0,0,1-2.442-1.768c-.787-1.36-.748-3.2.113-5.46a1.324,1.324,0,0,0,.125-.557c-.289-.412-2.246-.709-4.168-.492a4,4,0,0,1-3.622-.6c-1.184-.982-1.6-2.664-1.241-5a2.06,2.06,0,0,0-.638-1.372,2.871,2.871,0,0,0-2.292.157A4.924,4.924,0,0,1,1764,47.2c-.973-.168-2.318-.843-3.173-3.1a1.709,1.709,0,0,1-.114-.557,3.034,3.034,0,0,0-.562-1.745c-.277-.133-.677-.3-1.077-.486a1.1,1.1,0,0,0-1.2.986s-.21,1.339.68,1.528a4.668,4.668,0,0,0,1.774.335s1.554.387-.479,2.4c0,0-1.583,2.3.575,1.854,0,0,3.367-1.32,1.867,1.155,0,0-2.489,2.438-.889,2.556a5.493,5.493,0,0,0,2.545-.58s3.106-1.059.324,2.98c0,0-1.9,2.881,1.13,1.815,0,0,4.393-2.628,3.293.663,0,0-2.4,3.736-1.1,3.636,0,0,1.353.168,3.621-2.207s-.365,4.3-.365,4.3-.718,2.642,1.3.942c0,0,4.327-4.3,3.448-.884l-1.445,2.771s-.676,2.08.962,1.463l1.841-1.345s3.577-3.016,1.874.973.446,2.158.446,2.158,3.13-3,3.4-1.537c0,0-1.242,3.871.194,4.243,0,0,1.271.383,2.771-1.232,0,0,2.847,3.432,4.8,3.433a1.309,1.309,0,0,0,.887-.322l-4.577-3.077C1786.714,70.288,1786.676,70.261,1786.638,70.231Z" transform="translate(-41.241 -18.842)" fill="#023f5f"/>
          <path id="Tracé_3377" data-name="Tracé 3377" d="M1663.391,75.65c-.018.02-.032.039-.051.058a2.031,2.031,0,0,1-2.409.429.925.925,0,0,1-.16-.11c-.316-.264-1.626-1.158-2.268-.664a1.017,1.017,0,0,1-.143.091,3.962,3.962,0,0,0-.4,1.932.947.947,0,0,1-.031.2,1.946,1.946,0,0,1-1.085,1.23,3.44,3.44,0,0,1-2.952-.347.794.794,0,0,0-.3-.1,3.7,3.7,0,0,0-.485,2.233,2.18,2.18,0,0,1-.517,1.931,2.784,2.784,0,0,1-2.776.409,1.126,1.126,0,0,0-.777.274,1.569,1.569,0,0,0-.033,1.251,2.673,2.673,0,0,1,.663,2.3,2.318,2.318,0,0,1-1.846,1.557.969.969,0,0,1-.308.032,1.652,1.652,0,0,0-.975.213c-.086.144-.2.351-.32.557a.6.6,0,0,0,.471.7,1.331,1.331,0,0,0,.308.037.527.527,0,0,0,.56-.323,2.558,2.558,0,0,0,.275-.944s.291-.822,1.275.385c0,0,1.166.979,1.036-.213,0,0-.537-1.891.724-.951,0,0,1.19,1.477,1.337.617a2.972,2.972,0,0,0-.181-1.41s-.411-1.737,1.632-.019c0,0,1.463,1.178,1.044-.517,0,0-1.194-2.518.532-1.751,0,0,1.894,1.492,1.911.785,0,0,.159-.725-1.007-2.078s2.313.424,2.313.424,1.394.527.579-.657c0,0-2.1-2.568-.3-1.913l1.426.929s1.089.475.842-.445l-.633-1.068s-1.447-2.095.625-.964,1.193-.129,1.193-.129-1.463-1.856-.653-1.925c0,0,2.033.876,2.308.117,0,0,.273-.67-.521-1.565,0,0,2.74-1.858,1.984-2.916Z" transform="translate(-41.241 -18.842)" fill="#023f5f"/>
          <path id="Tracé_3378" data-name="Tracé 3378" d="M1412.276,22.934a1.131,1.131,0,0,0-.723.4,1.569,1.569,0,0,0,.174,1.238,2.672,2.672,0,0,1,1.038,2.155,2.319,2.319,0,0,1-1.562,1.842.944.944,0,0,1-.3.083,1.643,1.643,0,0,0-.926.372c-.061.155-.135.376-.223.6a.6.6,0,0,0,.581.616v0h.084c.192,0,.669-.04.723-.429a2.544,2.544,0,0,0,.114-.977s.151-.858,1.322.168c0,0,1.312.772.986-.382,0,0-.845-1.775.555-1.057,0,0,1.422,1.258,1.422.385a3,3,0,0,0-.412-1.361s-.694-1.645,1.606-.29c0,0,1.637.918.942-.682,0,0-1.595-2.285.233-1.814,0,0,2.117,1.155,2.017.455,0,0,.039-.741-1.336-1.882s2.349.033,2.349.033,1.461.288.461-.743c0,0-2.5-2.184-.611-1.838l1.561.679s1.159.288.758-.578l-.8-.949s-.051-.053-.125-.136h-7.153a6.712,6.712,0,0,0,.1,1.233,2.171,2.171,0,0,1-.188,1.99A2.783,2.783,0,0,1,1412.276,22.934Z" transform="translate(-31.643 -18.842)" fill="#023f5f"/>
          <path id="Tracé_3379" data-name="Tracé 3379" d="M1208.869,28.08l3.441-2.95c.03-.024.06-.049.091-.072a3.069,3.069,0,0,1,3.7-.01,1.562,1.562,0,0,1,.209.2c.4.48,2.116,2.147,3.2,1.58a1.456,1.456,0,0,1,.237-.1,5.989,5.989,0,0,0,1.1-2.768,1.55,1.55,0,0,1,.1-.29,2.955,2.955,0,0,1,1.936-1.546c1.253-.322,2.7.111,4.3,1.287a1.116,1.116,0,0,0,.414.222c.386-.139,1.05-1.623,1.3-3.193a3.881,3.881,0,0,1,.329-1.6h-10.9c.325.866.76,2.508-1.37.808a8.958,8.958,0,0,0-1.152-.808h-.817a1.672,1.672,0,0,0,.161.688s1.692,3.142.471,3.033c0,0-2.79-1.833-3.4-.776,0,0-.582.925.369,2.464C1212.588,24.254,1208.03,26.3,1208.869,28.08Z" transform="translate(-28.111 -18.842)" fill="#023f5f"/>
          <path id="Tracé_3380" data-name="Tracé 3380" d="M1539.641,88.782l-3.442,2.949c-.03.025-.059.049-.09.072a3.071,3.071,0,0,1-3.7.01,1.431,1.431,0,0,1-.207-.205c-.4-.48-2.116-2.147-3.2-1.58a1.365,1.365,0,0,1-.237.1,5.987,5.987,0,0,0-1.1,2.768,1.566,1.566,0,0,1-.1.289,2.958,2.958,0,0,1-1.938,1.547c-1.253.322-2.7-.112-4.3-1.288a1.141,1.141,0,0,0-.413-.222c-.391.139-1.054,1.623-1.3,3.193a3.4,3.4,0,0,1-.994,2.511h8.048c.054-.351.357-.451,1.121-.011l.012.011h2.753l-.17-.453s-1.6-3.488,1.182-1.269,1.807.119,1.807.119-1.692-3.142-.47-3.033c0,0,2.791,1.833,3.4.776,0,0,.582-.924-.37-2.464C1535.928,92.6,1540.488,90.553,1539.641,88.782Z" transform="translate(-33.708 -18.842)" fill="#023f5f"/>
          <path id="Tracé_3381" data-name="Tracé 3381" d="M1543.649,86.083c-1.179-2.046-4.007-2.106-5.692-1.771a6.513,6.513,0,0,1-1.81-.309.92.92,0,0,0-.2-.113,32.344,32.344,0,0,0-7.545-2.041c-5.693-.827-10.577.135-14.127,2.779-.63.407-6.769,4.589-9.23,14.3h4.754a3.891,3.891,0,0,1,1.17-1.876,4.6,4.6,0,0,1,3.96-.8,1.465,1.465,0,0,1,.25.092,3.146,3.146,0,0,0,1.479.422,1.075,1.075,0,0,0,.047-.309,1.494,1.494,0,0,1,.008-.327c.109-.762.767-4.612,3.073-5.58a3.187,3.187,0,0,1,3.261.561c1.048.773,1.659.868,1.859.811.83-3.376,2.082-4.338,2.959-4.565,2.489-1.13,5.065.717,6.365,2.17a.912.912,0,0,0,.143-.054l3.694-3.169a1.447,1.447,0,0,1,1.948.063,1.956,1.956,0,0,1,1.839,1c.579,1.5-.739,3.612-1.294,4.3a1.106,1.106,0,0,0-.207.4,54,54,0,0,1-2.336,6.859l2.351,0a56.472,56.472,0,0,0,2.03-6.079c.574-.767,2.5-3.652,1.49-6.267A4.027,4.027,0,0,0,1543.649,86.083Z" transform="translate(-33.717 -18.842)" fill="#023f5f"/>
          <path id="Tracé_3382" data-name="Tracé 3382" d="M1406.942,27.087a5.336,5.336,0,0,1,.272,1.7c-.027.587-.048,2.389.658,3.133v0a2.539,2.539,0,0,0,1.9.668,5.455,5.455,0,0,0,1.683-.3l.04-.014a16.124,16.124,0,0,1,4.478-1.143.673.673,0,0,0,.11,0c.267-.028,6.539-.751,9.487-4.036.3-.3,2.366-2.522,2.955-8.251h-1.447c-.572,5.353-2.49,7.2-2.516,7.221l-.05.051c-2.45,2.754-7.963,3.506-8.536,3.576a17.534,17.534,0,0,0-4.983,1.235c-1.383.447-1.956.082-2.05.011a.044.044,0,0,1-.014-.013,1.57,1.57,0,0,1-.2-.661,2.7,2.7,0,0,1-.536-1.943,2.991,2.991,0,0,1,2.322-1.555,1.023,1.023,0,0,0,.338-.245,1.5,1.5,0,0,0-.47-.57.96.96,0,0,1-.293-.349,3.36,3.36,0,0,1-.2-3.217A3.049,3.049,0,0,1,1412.172,21a1.046,1.046,0,0,1,.177,0,2.071,2.071,0,0,0,1.016-.063.682.682,0,0,0-.039-.2.867.867,0,0,1-.067-.206,8.417,8.417,0,0,1-.159-1.691h-6.095a18.841,18.841,0,0,0-.119,8.074A.906.906,0,0,0,1406.942,27.087Z" transform="translate(-31.697 -18.842)" fill="#023f5f"/>
          <path id="Tracé_3383" data-name="Tracé 3383" d="M1795.808,67.753a1.193,1.193,0,0,0,.068-.269,39.459,39.459,0,0,0-.059-9.511c-.879-6.945-3.592-12.361-7.847-15.661-.756-.671-9.019-7.667-23.567-5.909a1.338,1.338,0,0,0-.317.079,4.857,4.857,0,0,1-.643.143,12.906,12.906,0,0,1-2.508.134c-1.073-.128-4.373-.4-5.827.8-.39.315-2.25,2.091-1.15,6.51.006.024.015.049.022.073.5,1.617,1.755,6.269,1.514,8.353a1.5,1.5,0,0,0-.008.2c.022.492.535,12.08,6.174,17.908.649.763,6.848,7.38,25.8,7.351a12.076,12.076,0,0,0,4.123.814,6.123,6.123,0,0,0,3.71-1.1,4.328,4.328,0,0,0,.512-.444c2.019-2.05,1.169-5.382.229-7.25A7.986,7.986,0,0,1,1795.808,67.753Zm-2.1,7.783c-1.566,1.165-4.477.307-5.466-.122a1.343,1.343,0,0,0-.53-.111l0,.013c-18.622.084-23.979-6.351-24.029-6.416l-.088-.1c-4.731-4.848-5.4-15.046-5.453-16.106.288-2.992-1.37-8.492-1.617-9.292-.638-2.6.1-3.6.243-3.761a.19.19,0,0,1,.024-.025,2.931,2.931,0,0,1,1.239-.274,4.977,4.977,0,0,1,3.63-.733c2.015.959,2.457,3.5,2.551,4.459a1.89,1.89,0,0,0,.4.65,2.79,2.79,0,0,0,1.106-.788,1.765,1.765,0,0,1,.677-.49c2.411-.98,4.405-.967,5.922.038a5.6,5.6,0,0,1,2.23,4.382,1.843,1.843,0,0,1-.025.324,3.783,3.783,0,0,0-.014,1.87,1.223,1.223,0,0,0,.376-.045,1.791,1.791,0,0,1,.387-.1c.928-.121,5.657-.6,7.542,1.791a3.878,3.878,0,0,1,.4,4.005c-.564,1.483-.477,2.23-.346,2.444,4.228-.124,5.762,1.034,6.314,1.987,2.123,2.553.805,6.169-.477,8.169a.809.809,0,0,0,.11.149l4.915,3.3a1.761,1.761,0,0,1,.562,2.3A2.388,2.388,0,0,1,1793.712,75.536Z" transform="translate(-41.241 -18.842)" fill="#023f5f"/>
          <path id="Tracé_3384" data-name="Tracé 3384" d="M46.026,73.8v0h0Z" transform="translate(-6.447 -18.842)" fill="#023f5f"/>
          <path id="Tracé_3385" data-name="Tracé 3385" d="M605.37,86.083c-1.178-2.046-4.006-2.106-5.692-1.771a6.512,6.512,0,0,1-1.81-.309.917.917,0,0,0-.2-.113,32.345,32.345,0,0,0-7.545-2.041c-5.692-.827-10.575.135-14.125,2.779-.633.407-6.772,4.589-9.233,14.3h4.757a3.87,3.87,0,0,1,1.167-1.876,4.6,4.6,0,0,1,3.959-.8,1.491,1.491,0,0,1,.252.092,3.138,3.138,0,0,0,1.478.422,1.043,1.043,0,0,0,.047-.309,1.376,1.376,0,0,1,.009-.327c.108-.762.767-4.612,3.073-5.58a3.185,3.185,0,0,1,3.26.561c1.05.773,1.659.868,1.859.811.83-3.376,2.083-4.338,2.959-4.565,2.49-1.13,5.066.717,6.366,2.17a.707.707,0,0,0,.141-.054l3.7-3.169a1.449,1.449,0,0,1,1.948.063,1.956,1.956,0,0,1,1.838,1c.575,1.5-.743,3.612-1.3,4.3a1.107,1.107,0,0,0-.2.4,54.008,54.008,0,0,1-2.338,6.859l2.35,0a56.5,56.5,0,0,0,2.03-6.079c.573-.767,2.5-3.652,1.489-6.267A3.7,3.7,0,0,0,605.37,86.083Z" transform="translate(-16.632 -18.842)" fill="#023f5f"/>
          <path id="Tracé_3386" data-name="Tracé 3386" d="M708.411,89.826h0Z" transform="translate(-18.955 -18.842)" fill="#023f5f"/>
          <path id="Tracé_3387" data-name="Tracé 3387" d="M142.635,45.756c1,1.2,2.855.911,3.916.5a4.271,4.271,0,0,1,1.216-.006.6.6,0,0,0,.142.051,21.193,21.193,0,0,0,4.54.487q.3,0,.612-.009c3.812-.113,6.888-1.3,8.9-3.431.4-.374,4.627-4.483,4.438-12.457a.692.692,0,0,0-.026-.175A5.343,5.343,0,0,1,166.388,29c.124-.576.442-2.349-.13-3.2-.15-.228-1.014-1.329-3.466-.964l-.04.007a16.13,16.13,0,0,1-4.6.383.665.665,0,0,0-.109-.015c-.268-.02-6.573-.35-10.025,2.4-.448.313-4.358,3.324-5.337,13.592-.285.569-1.212,2.668-.254,4.258A2.431,2.431,0,0,0,142.635,45.756Zm1.38-4a.747.747,0,0,0,.088-.284c.929-10.093,4.7-12.658,4.736-12.682.02-.013.04-.027.059-.042,2.876-2.309,8.435-2.134,9.013-2.109a17.468,17.468,0,0,0,5.118-.39c1.44-.209,1.945.245,2.024.33a.044.044,0,0,1,.012.015,1.578,1.578,0,0,1,.084.685,2.708,2.708,0,0,1,.207,2.005,3,3,0,0,1-2.55,1.148,1,1,0,0,0-.373.185,1.492,1.492,0,0,0,.368.64.966.966,0,0,1,.23.393,3.365,3.365,0,0,1-.331,3.206,3.047,3.047,0,0,1-2.491.978,1.034,1.034,0,0,1-.175-.031,2.051,2.051,0,0,0-1.012-.106.647.647,0,0,0,0,.206.97.97,0,0,1,.031.214c.017.51.028,3.092-1.365,3.992a2.11,2.11,0,0,1-2.191.008c-.773-.384-1.183-.376-1.3-.316-.155,2.3-.863,3.068-1.408,3.316-1.495,1.018-3.386.112-4.4-.688a.578.578,0,0,0-.086.052l-2.048,2.49h0a.958.958,0,0,1-1.275.185,1.3,1.3,0,0,1-1.314-.445C143.115,43.8,143.731,42.268,144.015,41.755Z" transform="translate(-6.447 -18.842)" fill="#023f5f"/>
          <path id="Tracé_3388" data-name="Tracé 3388" d="M51.695,73.033A4.708,4.708,0,0,0,49.92,72.7s-1.554-.387.479-2.4c0,0,1.583-2.3-.575-1.854,0,0-3.364,1.324-1.874-1.156,0,0,2.49-2.437.89-2.556a5.5,5.5,0,0,0-2.547.58s-3.1,1.059-.323-2.98c0,0,1.9-2.88-1.13-1.814,0,0-4.4,2.627-3.3-.663,0,0,2.4-3.737,1.1-3.637,0,0-1.354-.167-3.622,2.208s.365-4.3.365-4.3.72-2.641-1.3-.941c0,0-4.325,4.3-3.447.884L36.086,51.3s.677-2.079-.961-1.463L33.284,51.18s-3.573,3.015-1.873-.974-.447-2.158-.447-2.158-3.13,3.005-3.4,1.537c0,0,1.236-3.871-.2-4.242,0,0-1.27-.383-2.77,1.232,0,0-3.884-4.68-5.684-3.11l4.58,3.081c.038.026.076.053.113.083a3.733,3.733,0,0,1,1.213,4.33,1.759,1.759,0,0,1-.173.312c-.431.624-1.831,3.178-.815,4.264a1.843,1.843,0,0,1,.193.247c.218.123,1.124.509,3.6.392a1.771,1.771,0,0,1,.371.022,3.6,3.6,0,0,1,2.443,1.767c.788,1.366.748,3.2-.112,5.461a1.389,1.389,0,0,0-.126.556c.29.412,2.246.709,4.168.492a4,4,0,0,1,3.623.6c1.184.982,1.6,2.665,1.241,5a2.053,2.053,0,0,0,.638,1.373,2.873,2.873,0,0,0,2.293-.157,4.916,4.916,0,0,1,4.088-1.622c.973.168,2.317.843,3.173,3.1a1.738,1.738,0,0,1,.113.556,3.023,3.023,0,0,0,.562,1.745h0c.279.133.676.3,1.079.48a1.1,1.1,0,0,0,1.2-.985S52.583,73.223,51.695,73.033Z" transform="translate(-6.447 -18.842)" fill="#023f5f"/>
          <path id="Tracé_3389" data-name="Tracé 3389" d="M601.358,88.782l-3.442,2.949q-.043.037-.09.072a3.069,3.069,0,0,1-3.7.01,1.5,1.5,0,0,1-.209-.205c-.4-.48-2.116-2.147-3.2-1.58a1.379,1.379,0,0,1-.238.1,5.992,5.992,0,0,0-1.1,2.768,1.392,1.392,0,0,1-.1.289,2.957,2.957,0,0,1-1.936,1.547c-1.254.322-2.7-.112-4.3-1.288a1.142,1.142,0,0,0-.413-.222c-.386.139-1.05,1.623-1.3,3.193a3.4,3.4,0,0,1-.993,2.511h8.048c.054-.351.357-.451,1.121-.011l.012.011h2.748l-.17-.453s-1.6-3.488,1.182-1.269,1.807.119,1.807.119-1.692-3.142-.47-3.033c0,0,2.792,1.833,3.4.776,0,0,.583-.924-.367-2.464C597.648,92.6,602.206,90.553,601.358,88.782Z" transform="translate(-16.782 -18.842)" fill="#023f5f"/>
          <path id="Tracé_3390" data-name="Tracé 3390" d="M431.525,66.753a.993.993,0,0,0,.068-.269,39.406,39.406,0,0,0-.057-9.511c-.88-6.945-3.594-12.361-7.848-15.661-.755-.671-9.019-7.667-23.568-5.909a1.381,1.381,0,0,0-.316.079,4.687,4.687,0,0,1-.642.143,12.915,12.915,0,0,1-2.508.134c-1.073-.128-4.372-.4-5.827.8-.388.315-2.248,2.091-1.148,6.51.006.024.014.049.02.073.5,1.617,1.755,6.269,1.516,8.353a1.214,1.214,0,0,0-.008.2c.019.492.533,12.081,6.172,17.908.65.763,6.849,7.38,25.8,7.351a12.118,12.118,0,0,0,4.122.814,6.129,6.129,0,0,0,3.712-1.1,4.491,4.491,0,0,0,.511-.444c2.017-2.05,1.169-5.382.228-7.25A7.986,7.986,0,0,1,431.525,66.753Zm-2.093,7.783c-1.566,1.165-4.479.307-5.466-.122a1.36,1.36,0,0,0-.53-.111v.019c-18.623.084-23.98-6.351-24.031-6.416-.028-.035-.057-.069-.087-.1-4.731-4.848-5.395-15.046-5.452-16.106.282-2.992-1.371-8.492-1.618-9.292-.638-2.6.1-3.6.245-3.761a.189.189,0,0,1,.024-.025,2.93,2.93,0,0,1,1.239-.274,4.977,4.977,0,0,1,3.63-.733c2.016.959,2.452,3.5,2.552,4.459a1.876,1.876,0,0,0,.4.65,2.778,2.778,0,0,0,1.1-.787,1.771,1.771,0,0,1,.679-.491c2.411-.98,4.4-.967,5.922.038a5.6,5.6,0,0,1,2.23,4.382,1.846,1.846,0,0,1-.026.324,3.819,3.819,0,0,0-.015,1.87,1.194,1.194,0,0,0,.376-.045,1.85,1.85,0,0,1,.387-.1c.929-.121,5.658-.6,7.543,1.791a3.876,3.876,0,0,1,.4,4c-.564,1.483-.477,2.23-.346,2.444,4.227-.124,5.762,1.034,6.315,1.987,2.127,2.553.8,6.169-.479,8.169a1,1,0,0,0,.111.148l4.917,3.3a1.762,1.762,0,0,1,.559,2.3A2.386,2.386,0,0,1,429.432,74.536Z" transform="translate(-13.417 -18.842)" fill="#023f5f"/>
          <path id="Tracé_3391" data-name="Tracé 3391" d="M468.665,27.087a5.339,5.339,0,0,1,.271,1.7c-.027.587-.047,2.389.659,3.133v0a2.536,2.536,0,0,0,1.9.668,5.456,5.456,0,0,0,1.684-.3l.04-.014a16.124,16.124,0,0,1,4.478-1.143.673.673,0,0,0,.11,0c.267-.028,6.54-.751,9.487-4.036.3-.3,2.367-2.522,2.954-8.251H488.8c-.573,5.353-2.491,7.2-2.516,7.221s-.034.033-.05.051c-2.451,2.754-7.963,3.506-8.536,3.576a17.526,17.526,0,0,0-4.983,1.235c-1.384.447-1.957.082-2.051.011a.057.057,0,0,1-.014-.013,1.6,1.6,0,0,1-.2-.661,2.717,2.717,0,0,1-.536-1.943,2.992,2.992,0,0,1,2.323-1.555,1.009,1.009,0,0,0,.337-.245,1.5,1.5,0,0,0-.47-.57.958.958,0,0,1-.292-.349,3.362,3.362,0,0,1-.206-3.217A3.051,3.051,0,0,1,473.9,21a1.046,1.046,0,0,1,.177,0,2.083,2.083,0,0,0,1.016-.063.653.653,0,0,0-.04-.2.993.993,0,0,1-.067-.206,8.492,8.492,0,0,1-.158-1.691h-6.1a18.826,18.826,0,0,0-.118,8.074A.778.778,0,0,0,468.665,27.087Z" transform="translate(-14.764 -18.842)" fill="#023f5f"/>
          <path id="Tracé_3392" data-name="Tracé 3392" d="M422.351,69.23a3.73,3.73,0,0,1-1.212-4.33,1.781,1.781,0,0,1,.172-.311c.431-.625,1.832-3.179.814-4.265a1.842,1.842,0,0,1-.193-.247c-.218-.123-1.125-.509-3.6-.391a1.855,1.855,0,0,1-.372-.022,3.6,3.6,0,0,1-2.439-1.768c-.787-1.365-.747-3.2.113-5.46a1.322,1.322,0,0,0,.126-.557c-.289-.412-2.245-.709-4.167-.492a4,4,0,0,1-3.623-.6c-1.184-.982-1.6-2.665-1.241-5a2.051,2.051,0,0,0-.638-1.372,2.873,2.873,0,0,0-2.293.157,4.919,4.919,0,0,1-4.085,1.624c-.974-.168-2.316-.843-3.174-3.1a1.764,1.764,0,0,1-.112-.557,3.034,3.034,0,0,0-.563-1.745c-.276-.133-.676-.3-1.076-.486a1.1,1.1,0,0,0-1.2.986s-.208,1.339.68,1.528a4.692,4.692,0,0,0,1.775.335s1.554.387-.478,2.4c0,0-1.584,2.3.573,1.854,0,0,3.367-1.32,1.867,1.155,0,0-2.49,2.438-.89,2.556a5.5,5.5,0,0,0,2.547-.58s3.1-1.059.323,2.98c0,0-1.9,2.881,1.129,1.815,0,0,4.395-2.628,3.295.663,0,0-2.4,3.736-1.1,3.636,0,0,1.355.168,3.622-2.207s-.365,4.3-.365,4.3-.72,2.642,1.3.942c0,0,4.324-4.3,3.446-.884l-1.445,2.771s-.677,2.08.961,1.463l1.842-1.345s3.573-3.016,1.873.973.447,2.158.447,2.158,3.131-3,3.4-1.537c0,0-1.236,3.871.2,4.243,0,0,1.27.383,2.77-1.232,0,0,2.851,3.433,4.793,3.432a1.307,1.307,0,0,0,.887-.322l-4.577-3.077C422.425,69.287,422.388,69.26,422.351,69.23Z" transform="translate(-13.458 -18.842)" fill="#023f5f"/>
          <path id="Tracé_3393" data-name="Tracé 3393" d="M55.126,79.3c.388-.314,2.248-2.091,1.148-6.509-.006-.025-.014-.05-.021-.074-.5-1.617-1.756-6.268-1.516-8.353a1.213,1.213,0,0,0,.008-.2c-.02-.491-.533-12.08-6.172-17.907-.65-.764-6.849-7.38-25.8-7.352-1.092-.421-5.094-1.743-7.833.291a4.483,4.483,0,0,0-.511.443c-2.018,2.05-1.169,5.383-.229,7.25a7.953,7.953,0,0,1,.228,2.222,1,1,0,0,0-.068.268,39.331,39.331,0,0,0,.061,9.508c.88,6.944,3.594,12.36,7.848,15.66.672.6,7.275,6.2,18.951,6.191a38.424,38.424,0,0,0,4.612-.283,1.273,1.273,0,0,0,.316-.079,4.57,4.57,0,0,1,.644-.143A12.9,12.9,0,0,1,49.3,80.1C50.372,80.225,53.671,80.5,55.126,79.3Zm-6.549-1.041c-2.014-.958-2.45-3.5-2.551-4.456a1.846,1.846,0,0,0-.408-.662,2.778,2.778,0,0,0-1.1.787,1.755,1.755,0,0,1-.68.49c-2.41.98-4.4.967-5.921-.038A5.6,5.6,0,0,1,35.687,70a1.855,1.855,0,0,1,.026-.324,3.783,3.783,0,0,0,.014-1.87,1.224,1.224,0,0,0-.376.046,1.791,1.791,0,0,1-.387.1c-.928.121-5.657.6-7.542-1.79a3.88,3.88,0,0,1-.4-4.006c.565-1.482.478-2.229.347-2.444-4.228.123-5.764-1.034-6.315-1.987-2.128-2.553-.8-6.169.478-8.169a1,1,0,0,0-.11-.148L16.5,46.1a1.762,1.762,0,0,1-.56-2.3,2.386,2.386,0,0,1,.581-2.482c1.566-1.165,4.478-.306,5.466.122a1.337,1.337,0,0,0,.536.111c18.622-.084,23.98,6.351,24.031,6.416a1.2,1.2,0,0,0,.087.1c4.731,4.849,5.4,15.047,5.452,16.107-.282,2.992,1.37,8.492,1.618,9.292.638,2.594-.1,3.6-.245,3.76a.1.1,0,0,1-.025.025,2.893,2.893,0,0,1-1.238.274A4.974,4.974,0,0,1,48.577,78.256Z" transform="translate(-6.447 -18.842)" fill="#023f5f"/>
          <path id="Tracé_3394" data-name="Tracé 3394" d="M725.113,75.65c-.017.02-.033.039-.051.058a2.032,2.032,0,0,1-2.41.429,1.077,1.077,0,0,1-.159-.11c-.316-.264-1.625-1.158-2.267-.664a.9.9,0,0,1-.144.091,3.984,3.984,0,0,0-.4,1.932.955.955,0,0,1-.031.2,1.957,1.957,0,0,1-1.085,1.23,3.44,3.44,0,0,1-2.952-.347.761.761,0,0,0-.3-.1,3.723,3.723,0,0,0-.485,2.233,2.18,2.18,0,0,1-.518,1.931,2.781,2.781,0,0,1-2.775.409,1.121,1.121,0,0,0-.775.274,1.553,1.553,0,0,0-.036,1.251,2.681,2.681,0,0,1,.665,2.3,2.324,2.324,0,0,1-1.847,1.557.968.968,0,0,1-.308.032,1.652,1.652,0,0,0-.975.213c-.087.144-.2.351-.32.557a.6.6,0,0,0,.47.7,1.339,1.339,0,0,0,.309.037.528.528,0,0,0,.561-.323,2.537,2.537,0,0,0,.274-.944s.292-.822,1.276.385c0,0,1.164.979,1.035-.213,0,0-.539-1.891.724-.951,0,0,1.19,1.477,1.338.617a3.011,3.011,0,0,0-.181-1.41s-.411-1.737,1.631-.019c0,0,1.462,1.178,1.043-.517,0,0-1.193-2.518.532-1.751,0,0,1.895,1.492,1.913.785,0,0,.159-.725-1.007-2.078s2.312.424,2.312.424,1.394.527.579-.657c0,0-2.1-2.568-.3-1.913l1.427.929s1.091.475.842-.445l-.632-1.068s-1.445-2.095.626-.964,1.192-.129,1.192-.129-1.462-1.856-.654-1.925c0,0,2.032.876,2.309.117,0,0,.278-.67-.522-1.565,0,0,2.739-1.858,1.983-2.916Z" transform="translate(-19.071 -18.842)" fill="#023f5f"/>
          <path id="Tracé_3395" data-name="Tracé 3395" d="M819.2,42.295a1.1,1.1,0,0,0-1.2-.985c-.4.185-.8.353-1.076.485a3.041,3.041,0,0,0-.563,1.745,1.763,1.763,0,0,1-.112.557c-.857,2.256-2.2,2.931-3.174,3.1a4.919,4.919,0,0,1-4.085-1.624,2.873,2.873,0,0,0-2.293-.157,2.06,2.06,0,0,0-.638,1.372c.359,2.335-.057,4.018-1.241,5a4,4,0,0,1-3.623.6c-1.922-.217-3.878.08-4.167.491a1.321,1.321,0,0,0,.126.557c.86,2.261.9,4.095.112,5.461a3.6,3.6,0,0,1-2.443,1.767,1.855,1.855,0,0,1-.372.022c-2.471-.118-3.379.268-3.6.392a1.7,1.7,0,0,1-.193.246c-1.017,1.087.384,3.64.814,4.265a1.719,1.719,0,0,1,.172.311,3.735,3.735,0,0,1-1.211,4.331c-.037.029-.074.057-.113.083l-4.577,3.077a1.308,1.308,0,0,0,.887.321l0,0c1.953,0,4.8-3.432,4.8-3.432,1.5,1.615,2.77,1.232,2.77,1.232,1.44-.371.2-4.242.2-4.242.265-1.464,3.4,1.536,3.4,1.536s2.148,1.831.447-2.158,1.873-.973,1.873-.973l1.842,1.346c1.638.617.961-1.463.961-1.463l-1.445-2.771c-.878-3.416,3.446.884,3.446.884,2.016,1.7,1.3-.942,1.3-.942s-2.633-6.673-.365-4.3,3.622,2.208,3.622,2.208c1.292.1-1.1-3.637-1.1-3.637-1.1-3.29,3.3-.663,3.3-.663,3.029,1.066,1.129-1.815,1.129-1.815-2.777-4.038.323-2.98.323-2.98a5.5,5.5,0,0,0,2.547.58c1.6-.119-.89-2.557-.89-2.557-1.5-2.474,1.867-1.154,1.867-1.154,2.157.445.573-1.855.573-1.855-2.032-2.011-.478-2.4-.478-2.4a4.689,4.689,0,0,0,1.775-.336C819.411,43.634,819.2,42.295,819.2,42.295Z" transform="translate(-20.578 -18.842)" fill="#023f5f"/>
          <path id="Tracé_3396" data-name="Tracé 3396" d="M274.311,24.254s-4.56,2.048-3.714,3.825l3.442-2.95c.029-.024.059-.049.09-.072a3.069,3.069,0,0,1,3.7-.01,1.557,1.557,0,0,1,.209.2c.4.48,2.116,2.147,3.2,1.58a1.461,1.461,0,0,1,.238-.1,5.988,5.988,0,0,0,1.1-2.768,1.485,1.485,0,0,1,.1-.29,2.956,2.956,0,0,1,1.935-1.546c1.253-.322,2.7.111,4.3,1.287a1.1,1.1,0,0,0,.413.222c.386-.139,1.05-1.623,1.3-3.193a3.849,3.849,0,0,1,.329-1.6h-10.9c.323.866.758,2.508-1.371.808a8.857,8.857,0,0,0-1.152-.808h-.817a1.655,1.655,0,0,0,.159.689s1.692,3.142.47,3.033c0,0-2.79-1.833-3.4-.776,0,0-.582.925.369,2.464Z" transform="translate(-6.447 -18.842)" fill="#023f5f"/>
          <path id="Tracé_3397" data-name="Tracé 3397" d="M266.583,30.779c1.178,2.047,4.006,2.106,5.692,1.772a6.5,6.5,0,0,1,1.809.308.918.918,0,0,0,.2.113,32.366,32.366,0,0,0,7.546,2.041h0a26.7,26.7,0,0,0,3.842.287,16.914,16.914,0,0,0,10.287-3.067c.614-.4,6.385-4.329,8.985-13.388h-4.9a3.663,3.663,0,0,1-.781.962,4.6,4.6,0,0,1-3.959.8,1.432,1.432,0,0,1-.252-.091,3.109,3.109,0,0,0-1.477-.422,1.03,1.03,0,0,0-.047.307,1.394,1.394,0,0,1-.009.329c-.108.761-.767,4.612-3.073,5.58a3.188,3.188,0,0,1-3.261-.561c-1.049-.773-1.658-.869-1.858-.812-.83,3.376-2.083,4.338-2.959,4.566-2.49,1.129-5.066-.718-6.366-2.171a.808.808,0,0,0-.141.055l-3.7,3.168a1.448,1.448,0,0,1-1.948-.063,1.958,1.958,0,0,1-1.839-1c-.575-1.5.744-3.612,1.3-4.3a1.1,1.1,0,0,0,.2-.4,55.932,55.932,0,0,1,1.963-5.944h-2.335c-.586,1.548-1.149,3.265-1.673,5.165-.574.767-2.5,3.652-1.489,6.267A3.641,3.641,0,0,0,266.583,30.779Z" transform="translate(-6.447 -18.842)" fill="#023f5f"/>
          <path id="Tracé_3398" data-name="Tracé 3398" d="M146.847,41.205c.016-.02.033-.039.05-.057a2.033,2.033,0,0,1,2.41-.43.919.919,0,0,1,.159.11c.316.265,1.626,1.158,2.268.665a.9.9,0,0,1,.144-.092,3.969,3.969,0,0,0,.4-1.931,1.053,1.053,0,0,1,.031-.2,1.962,1.962,0,0,1,1.085-1.23,3.449,3.449,0,0,1,2.953.347.731.731,0,0,0,.3.1,3.713,3.713,0,0,0,.485-2.232,2.177,2.177,0,0,1,.517-1.931,2.784,2.784,0,0,1,2.775-.41,1.118,1.118,0,0,0,.777-.274,1.562,1.562,0,0,0,.035-1.25,2.679,2.679,0,0,1-.665-2.3,2.321,2.321,0,0,1,1.847-1.556.965.965,0,0,1,.307-.032,1.664,1.664,0,0,0,.976-.212c.087-.145.2-.351.32-.558a.6.6,0,0,0-.471-.7s-.715-.183-.864.288c0,0-.337.715-.274.945,0,0-.292.821-1.276-.386,0,0-1.165-.979-1.035.214,0,0,.539,1.891-.724.95,0,0-1.19-1.477-1.338-.616a3.006,3.006,0,0,0,.181,1.409s.411,1.738-1.632.019c0,0-1.461-1.178-1.042.517,0,0,1.192,2.518-.533,1.75,0,0-1.9-1.492-1.912-.785,0,0-.159.725,1.007,2.078s-2.313-.424-2.313-.424-1.393-.526-.578.657c0,0,2.1,2.569.3,1.913l-1.426-.928s-1.091-.476-.843.444l.632,1.068s1.446,2.094-.626.964-1.193.129-1.193.129,1.463,1.856.654,1.925c0,0-2.033-.876-2.309-.117,0,0-.278.666.522,1.566h0s-2.738,1.858-1.988,2.911Z" transform="translate(-6.447 -18.842)" fill="#023f5f"/>
          <path id="Tracé_3399" data-name="Tracé 3399" d="M815.415,70.6c5.639-5.827,6.153-17.416,6.172-17.907a1.212,1.212,0,0,0-.008-.2c-.24-2.085,1.016-6.737,1.516-8.353.007-.024.015-.049.02-.073,1.1-4.418-.759-6.195-1.148-6.509-1.456-1.2-4.754-.926-5.828-.8a12.921,12.921,0,0,1-2.509-.134,4.529,4.529,0,0,1-.641-.143,1.38,1.38,0,0,0-.316-.079c-14.549-1.758-22.813,5.238-23.568,5.909-4.254,3.3-6.968,8.717-7.848,15.661a39.406,39.406,0,0,0-.057,9.511,1.084,1.084,0,0,0,.068.269,7.989,7.989,0,0,1-.226,2.222c-.941,1.868-1.79,5.2.227,7.25a4.417,4.417,0,0,0,.512.444,6.125,6.125,0,0,0,3.713,1.1,12.113,12.113,0,0,0,4.121-.811C808.565,77.976,814.762,71.359,815.415,70.6Zm-2.022-1.718c-.051.064-5.408,6.5-24.031,6.415a1.354,1.354,0,0,0-.536.111c-.988.429-3.9,1.288-5.466.122a2.388,2.388,0,0,1-.58-2.482,1.763,1.763,0,0,1,.559-2.3l4.917-3.3a.945.945,0,0,0,.111-.149c-1.279-2-2.607-5.616-.479-8.169h0c.525-.906,1.938-2,5.707-2,.2,0,.4,0,.608.009.132-.215.218-.962-.346-2.444a3.878,3.878,0,0,1,.4-4.005c1.885-2.39,6.614-1.911,7.543-1.79a1.851,1.851,0,0,1,.387.1,1.194,1.194,0,0,0,.376.045,3.819,3.819,0,0,0-.015-1.87,1.843,1.843,0,0,1-.026-.324,5.6,5.6,0,0,1,2.236-4.388c1.522-1.006,3.511-1.019,5.922-.039a1.779,1.779,0,0,1,.679.49,2.771,2.771,0,0,0,1.1.788,1.847,1.847,0,0,0,.4-.649c.1-.96.536-3.5,2.552-4.46a4.982,4.982,0,0,1,3.63.733,2.946,2.946,0,0,1,1.239.274.191.191,0,0,1,.024.025c.145.161.883,1.161.245,3.761-.246.8-1.9,6.3-1.618,9.292-.052,1.06-.721,11.258-5.452,16.107C813.451,68.81,813.421,68.844,813.393,68.878Z" transform="translate(-20.547 -18.842)" fill="#023f5f"/>
          <path id="Tracé_3400" data-name="Tracé 3400" d="M729.324,71.1c-1-1.2-2.855-.911-3.915-.5a4.352,4.352,0,0,1-1.217.006.58.58,0,0,0-.141-.051,21.416,21.416,0,0,0-5.156-.468c-3.813.113-6.888,1.3-8.9,3.43-.4.374-4.627,4.483-4.438,12.457a.692.692,0,0,0,.026.175,5.348,5.348,0,0,1-.015,1.722c-.124.577-.443,2.35.129,3.2a2.858,2.858,0,0,0,2.53,1.029,6.292,6.292,0,0,0,.94-.074l.041-.007a16.132,16.132,0,0,1,4.6-.382.664.664,0,0,0,.109.014c.267.019,6.573.349,10.026-2.4.447-.313,4.357-3.324,5.336-13.593.284-.569,1.211-2.668.253-4.258A2.323,2.323,0,0,0,729.324,71.1Zm-1.38,4a.752.752,0,0,0-.088.285c-.929,10.093-4.7,12.657-4.736,12.682-.02.013-.04.027-.059.042-2.875,2.308-8.434,2.133-9.012,2.108a17.511,17.511,0,0,0-5.119.39c-1.439.21-1.944-.244-2.024-.33l-.013-.015a1.592,1.592,0,0,1-.083-.685,2.7,2.7,0,0,1-.207-2.005,2.993,2.993,0,0,1,2.55-1.147,1,1,0,0,0,.373-.185,1.515,1.515,0,0,0-.368-.64.953.953,0,0,1-.23-.393A3.36,3.36,0,0,1,709.259,82h0a2.958,2.958,0,0,1,2.29-.986c.1,0,.171.007.2.007a1.021,1.021,0,0,1,.174.03,2.08,2.08,0,0,0,1.013.107.648.648,0,0,0,0-.206.865.865,0,0,1-.031-.215c-.017-.51-.028-3.092,1.365-3.992a2.109,2.109,0,0,1,2.192-.008c.767.384,1.177.376,1.3.317.154-2.3.863-3.069,1.408-3.317,1.494-1.019,3.386-.113,4.4.687a.57.57,0,0,0,.086-.051l2.049-2.49a.957.957,0,0,1,1.276-.182,1.3,1.3,0,0,1,1.315.444C728.844,73.059,728.228,74.589,727.944,75.1Z" transform="translate(-19.06 -18.842)" fill="#023f5f"/>
          <path id="Tracé_3401" data-name="Tracé 3401" d="M1791.431,83.266h-.055a15.856,15.856,0,0,1-3.194-.4c-.695.887-1.1,1.392-1.1,1.392-3.333,4.288-1.157,5.948-1.157,5.948,3.473.932,4.631-1.832,4.631-1.832,1.146-1.659,2.315-3.467,3.481-5.35a10.567,10.567,0,0,1-2.254.246C1791.663,83.271,1791.547,83.27,1791.431,83.266Z" transform="translate(-41.241 -18.842)" fill="#023f5f"/>
          <path id="Tracé_3402" data-name="Tracé 3402" d="M1813.838,53.254c-2.831-10.035-6.819,0-6.819,0a82.26,82.26,0,0,1-6.456,12.118c-.043.775-.1,1.548-.182,2.319l-.079.734.27.686a14.09,14.09,0,0,1,.523,1.64c4.565-8.424,7.983-15.568,7.983-15.568,1.158-1.415,2.959.258,2.959.258,2.187,4.245,23.543,31.262,23.543,31.262,2.573,6.432,5.789,4.76,5.789,4.76,1.93-1.415,0-3.988,0-3.988C1836.094,85.288,1813.838,53.254,1813.838,53.254Z" transform="translate(-41.241 -18.842)" fill="#023f5f"/>
          <path id="Tracé_3403" data-name="Tracé 3403" d="M1477.862,30.215l-17.59,36.717c-1.708,1.537-2.562,0-2.562,0L1428.008,31a15.069,15.069,0,0,1-3.132,2.117L1454.3,68.81c2.391,3.928,5.123,4.44,5.123,4.44a2.883,2.883,0,0,0,2.391-2.049c.17-5.806,20.834-41.157,20.834-41.157C1481.277,25.262,1477.862,30.215,1477.862,30.215Z" transform="translate(-32.512 -18.842)" fill="#023f5f"/>
          <path id="Tracé_3404" data-name="Tracé 3404" d="M1355.347,81.243c-1.5-.111-2.918-.266-4.252-.455l4.041,10.285s3.881,1.464,2.293-4.182C1357.129,85.824,1356.374,83.808,1355.347,81.243Z" transform="translate(-30.506 -18.842)" fill="#023f5f"/>
          <path id="Tracé_3405" data-name="Tracé 3405" d="M1324.436,68.895c-3.176,4.234-6.529,3-5.117,12.88,0,0-7.94,6.351-5.646,10.762s5.646-3,5.646-3l9.436-21.584a29.266,29.266,0,0,1-1.713-3.924A27.838,27.838,0,0,1,1324.436,68.895Z" transform="translate(-29.935 -18.842)" fill="#023f5f"/>
          <path id="Tracé_3406" data-name="Tracé 3406" d="M1130.223,81.814s-11.942-10.332-28.362-33.912a16.333,16.333,0,0,1-7.24,3.053c-2.235,6.07-7.216,18.89-12.9,28.929,0,0-2.573,3.731-3.474,4.117,0,0-2.573,3.86,0,5.918s6.175-7.59,6.175-7.59l9.778-20.473a34.973,34.973,0,0,0,2.316-6.673c.772-3.473,3.473-5.66,5.918-2.959S1122.5,81.557,1132.281,87.6c0,0,2.059,1.287,1.544-1.543S1130.223,81.814,1130.223,81.814Z" transform="translate(-26.107 -18.842)" fill="#023f5f"/>
          <path id="Tracé_3407" data-name="Tracé 3407" d="M632.931,48.614s-2.152-9.7-6.016-8.646-2.806,8.293-2.806,8.293-5.117,15.879-8.293,20.114-6.528,3-5.116,12.88a25.507,25.507,0,0,0-1.954,1.791,8.391,8.391,0,0,1,.511.768l.013.023a8.254,8.254,0,0,1,.53,1.106,9.353,9.353,0,0,1,.385,5.082c.322-.583.515-1.007.515-1.007l16.585-37.934s2.293-3.529,3.705,0,15.526,39.469,15.526,39.469,3.882,1.464,2.294-4.182S632.931,48.614,632.931,48.614Z" transform="translate(-17.404 -18.842)" fill="#023f5f"/>
          <path id="Tracé_3408" data-name="Tracé 3408" d="M451.983,30.215,436.325,62.9c-.027,1.265-.09,2.529-.226,3.789l-.08.735.271.687c.066.169.146.389.229.636,3.382-9.852,20.246-38.7,20.246-38.7C455.4,25.262,451.983,30.215,451.983,30.215Z" transform="translate(-14.177 -18.842)" fill="#023f5f"/>
          <path id="Tracé_3409" data-name="Tracé 3409" d="M398.2,31.215l.243-.028.236-.068a5.834,5.834,0,0,1,.9-.182c.778-.094,1.555-.16,2.33-.212l-1.834-2.218a2.757,2.757,0,0,0-3.458-.545c-.84.781.335,2.57.874,3.3C397.708,31.254,397.934,31.246,398.2,31.215Z" transform="translate(-12.446 -18.842)" fill="#023f5f"/>
          <path id="Tracé_3410" data-name="Tracé 3410" d="M395.254,76.257s-.809,2.766,1.062,3.595c0,0,.782,1.383,4.47.646a3.361,3.361,0,0,0,1.285-2.6,27.1,27.1,0,0,1-5.523-3.046A2.069,2.069,0,0,0,395.254,76.257Z" transform="translate(-13.39 -18.842)" fill="#023f5f"/>
          <path id="Tracé_3411" data-name="Tracé 3411" d="M156.448,53.254a16.255,16.255,0,0,0-.772-2.2,22.23,22.23,0,0,1-2.44.22l-.729.012h-.08c-.59,0-1.181-.038-1.771-.079a15.753,15.753,0,0,0-1.026,2.045c-5.147,12.736-19.941,31.005-19.941,31.005-3.334,4.288-1.158,5.948-1.158,5.948,3.473.932,4.631-1.832,4.631-1.832,8.62-12.479,18.526-33.192,18.526-33.192,1.158-1.415,2.959.258,2.959.258C156.834,59.686,178.19,86.7,178.19,86.7c2.573,6.432,5.789,4.76,5.789,4.76,1.93-1.415,0-3.988,0-3.988C178.705,85.288,156.448,53.254,156.448,53.254Z" transform="translate(-6.447 -18.842)" fill="#023f5f"/>
          <path id="Tracé_3412" data-name="Tracé 3412" d="M51.976,84.7c-.6,1.207-1.5,3.7.393,5.218,2.573,2.059,6.176-7.59,6.176-7.59l.075-.158a7.364,7.364,0,0,1-.692.647A9.912,9.912,0,0,1,51.976,84.7Z" transform="translate(-6.447 -18.842)" fill="#023f5f"/>
          <path id="Tracé_3413" data-name="Tracé 3413" d="M104.344,81.814s-12.35-10.678-29.2-35.122c0,0-3.6-3.73-5.146.772,0,0-4.046,11.808-9.569,23.5.037.124.072.25.11.371l.121.436a13.669,13.669,0,0,1,.328,5.451l7.337-15.363a34.972,34.972,0,0,0,2.316-6.673c.772-3.473,3.473-5.66,5.918-2.959S96.625,81.557,106.4,87.6c0,0,2.058,1.287,1.544-1.543S104.344,81.814,104.344,81.814Z" transform="translate(-6.447 -18.842)" fill="#023f5f"/>
        </g>
      </g>
    </g>
  </g>
</svg>
