<?xml version="1.0" encoding="utf-8"?>
<!-- Generator: Adobe Illustrator 23.1.1, SVG Export Plug-In . SVG Version: 6.00 Build 0)  -->
<svg version="1.1" id="Calque_1" xmlns="http://www.w3.org/2000/svg" xmlns:xlink="http://www.w3.org/1999/xlink" x="0px" y="0px"
	 viewBox="0 0 20.3 20.3" style="enable-background:new 0 0 20.3 20.3;" xml:space="preserve">
<style type="text/css">
	.st0{fill:#023F5F;}
</style>
<g id="Groupe_2959" transform="translate(0.75 0.75)">
	<g id="comment-text">
		<path class="st0" d="M6.6,19.6c-0.9,0-1.7-0.8-1.7-1.7v-2.1h-3c-1.5,0-2.6-1.2-2.6-2.6V1.9C-0.8,1.2-0.5,0.5,0,0s1.2-0.8,1.9-0.8
			h15.1c1.5,0,2.6,1.2,2.6,2.6v11.3c0,1.5-1.2,2.6-2.6,2.6h-5.4l-3.3,3.3c-0.3,0.3-0.7,0.5-1.2,0.5H6.6z M1.9,0.8
			c-0.3,0-0.6,0.1-0.8,0.3C0.9,1.3,0.8,1.6,0.8,1.9v11.3c0,0.6,0.5,1.1,1.1,1.1h4.5v3.6c0,0.1,0.1,0.2,0.2,0.2h0.5
			c0,0,0.1,0,0.1-0.1l3.7-3.7h6.1c0.6,0,1.1-0.5,1.1-1.1V1.9c0-0.6-0.5-1.1-1.1-1.1H1.9z"/>
	</g>
</g>
</svg>
