<?xml version="1.0" encoding="iso-8859-1"?>
<!-- Generator: Adobe Illustrator 18.1.1, SVG Export Plug-In . SVG Version: 6.00 Build 0)  -->
<svg xmlns="http://www.w3.org/2000/svg" xmlns:xlink="http://www.w3.org/1999/xlink" version="1.1" id="Capa_1" x="0px" y="0px" viewBox="0 0 28.05 28.05" style="enable-background:new 0 0 28.05 28.05;" xml:space="preserve" width="512px" height="512px">
<g>
	<path d="M25.818,0.435H2.231C0.998,0.435,0,1.449,0,2.699v22.652c0,1.248,0.998,2.264,2.231,2.264h23.586   c1.23,0,2.233-1.016,2.233-2.264V2.699C28.051,1.449,27.048,0.435,25.818,0.435z M1.678,23.996V4.054   c0-1.102,0.877-1.994,1.965-1.994h3.85v23.932h-3.85C2.555,25.992,1.678,25.095,1.678,23.996z M26.372,23.996   c0,1.1-0.883,1.996-1.965,1.996H9.667V2.06h14.739c1.082,0,1.965,0.893,1.965,1.994L26.372,23.996L26.372,23.996z" fill="#FFFFFF" stroke-width="170px" />
</g>
	

</svg>
