<svg viewBox="-11 0 512 512.0005" xmlns="http://www.w3.org/2000/svg"><path d="m490 267c0 135.308594-109.691406 245-245 245s-245-109.691406-245-245 109.691406-245 245-245 245 109.691406 245 245zm0 0" fill="#02af8e"/><path d="m41.152344 242.003906h117c.6875 0 1.355468.085938 2 .234375v-52.238281c0-5.5-4.5-10-10-10h-101c-5.5 0-10 4.5-10 10v52.234375c.644531-.144531 1.3125-.230469 2-.230469zm0 0" fill="#fe3745"/><path d="m41.152344 242.003906h28.847656v-52.003906c0-5.5 4.5-10 10-10h-30.851562c-5.5 0-10 4.5-10 10v52.234375c.648437-.144531 1.316406-.230469 2.003906-.230469zm0 0" fill="#ea2a3d"/><path d="m303.1875 100.300781-35.808594-63.300781h-44.757812l-35.808594 63.300781c-1.355469 2.394531-2.464844 6.601563-2.464844 9.351563v392.21875c19.398438 4.941406 39.71875 7.574218 60.652344 7.574218s41.253906-2.632812 60.648438-7.574218v-392.21875c.003906-2.75-1.105469-6.957032-2.460938-9.351563zm0 0" fill="#ffe2b8"/><path d="m199.699219 137.636719v-27.984375c0-2.75 1.109375-6.957032 2.460937-9.351563l35.8125-63.300781h-15.351562l-35.808594 63.300781c-1.355469 2.394531-2.464844 6.601563-2.464844 9.351563v7.792968c.003906 9.632813 6.503906 17.730469 15.351563 20.191407zm0 0" fill="#ffd782"/><path d="m284.667969 138.425781c-9.203125 0-17.007813-5.9375-19.832031-14.1875-2.828126 8.25-10.628907 14.1875-19.835938 14.1875-9.203125 0-17.007812-5.9375-19.832031-14.1875-2.828125 8.25-10.628907 14.1875-19.835938 14.1875-11.585937 0-20.980469-9.394531-20.980469-20.980469v386.984376c19.394532 4.9375 39.714844 7.570312 60.648438 7.570312s41.253906-2.632812 60.648438-7.570312v-386.984376c.003906 11.585938-9.390626 20.980469-20.980469 20.980469zm0 0" fill="#ef9614"/><path d="m199.699219 504.429688v-366.792969c-8.847657-2.460938-15.351563-10.558594-15.351563-20.191407v386.984376c19.398438 4.9375 39.71875 7.570312 60.652344 7.570312 2.566406 0 5.125-.039062 7.675781-.117188-18.230469-.5625-35.957031-3.121093-52.976562-7.453124zm0 0" fill="#ef8318"/><path d="m268.195312 38.445312-20.734374-36.648437c-1.351563-2.394531-3.570313-2.394531-4.921876 0l-20.734374 36.648437zm0 0" fill="#231f20"/><path d="m245 138.425781c-9.207031 0-17.007812-5.9375-19.835938-14.1875v386.960938c6.546876.523437 13.15625.800781 19.835938.800781s13.292969-.277344 19.835938-.800781v-386.960938c-2.828126 8.25-10.628907 14.1875-19.835938 14.1875zm0 0" fill="#ffaf10"/><path d="m441.539062 215.855469-35.875-63.410157h-44.628906l-35.875 63.410157c-1.355468 2.394531-2.460937 6.601562-2.460937 9.351562v274.207031c49.269531-16.464843 91.5625-48.15625 121.300781-89.488281v-184.71875c0-2.75-1.109375-6.957031-2.460938-9.351562zm0 0" fill="#ffe2b8"/><g fill="#ffd782"><path d="m333.867188 495.363281c.203124-.078125.410156-.160156.617187-.238281-.207031.078125-.414063.160156-.617187.238281zm0 0"/><path d="m338 253.179688v-27.972657c0-2.75 1.109375-6.957031 2.460938-9.351562l35.875-63.410157h-15.300782l-35.875 63.410157c-1.355468 2.394531-2.460937 6.601562-2.460937 9.351562v7.792969c0 9.617188 6.476562 17.703125 15.300781 20.179688zm0 0"/><path d="m329.191406 497.128906c.523438-.191406 1.050782-.382812 1.574219-.578125-.523437.195313-1.050781.386719-1.574219.578125zm0 0"/><path d="m322.699219 499.414062c1.390625-.464843 2.769531-.945312 4.148437-1.433593-1.378906.488281-2.757812.96875-4.148437 1.433593zm0 0"/></g><path d="m444 409.921875v-176.921875c0 11.585938-9.394531 20.980469-20.980469 20.980469-9.207031 0-17.007812-5.9375-19.835937-14.1875-2.824219 8.25-10.628906 14.1875-19.835938 14.1875-9.203125 0-17.007812-5.9375-19.832031-14.1875-2.828125 8.25-10.628906 14.1875-19.835937 14.1875-11.585938 0-20.980469-9.394531-20.980469-20.980469v266.414062c49.269531-16.464843 91.5625-48.15625 121.300781-89.492187zm0 0" fill="#293d7c"/><path d="m338 253.179688c-8.824219-2.476563-15.300781-10.5625-15.300781-20.179688v266.414062c5.179687-1.734374 10.28125-3.640624 15.300781-5.703124zm0 0" fill="#1a2b63"/><path d="m406.542969 154-20.730469-36.648438c-1.355469-2.394531-3.570312-2.394531-4.925781 0l-20.730469 36.648438zm0 0" fill="#231f20"/><path d="m158.148438 287.996094h-117c-.738282 0-1.457032-.101563-2.148438-.269532v111.9375c28.589844 44.300782 71.078125 78.789063 121.300781 97.296876v-209.234376c-.691406.171876-1.40625.269532-2.152343.269532zm0 0" fill="#f87eab"/><path d="m78.152344 287.996094v158.386718c13.082031 12.171876 27.492187 22.933594 43 32.035157v-190.421875zm0 0" fill="#e26693"/><path d="m168.148438 255v-3.996094c0-5.5-4.5-10-10-10h-117c-5.5 0-10 4.5-10 10v3.996094c0 5.5 4.5 10 10 10-5.5 0-10 4.5-10 10v3.996094c0 5.5 4.5 10 10 10h117c5.5 0 10-4.5 10-10v-3.996094c0-5.5-4.5-10-10-10 5.5 0 10-4.5 10-10zm0 0" fill="#fff"/><path d="m168.148438 275c0-5.5-4.5-10-10-10h-117c-5.5 0-10 4.5-10 10v3.996094c0 5.5 4.5 10 10 10h117c5.5 0 10-4.5 10-10zm0 0" fill="#eef6ff"/><path d="m168.148438 251.003906c0-5.5-4.5-10-10-10h-117c-5.5 0-10 4.5-10 10v3.996094c0 5.5 4.5 10 10 10h117c5.5 0 10-4.5 10-10zm0 0" fill="#fff"/><path d="m62 278.996094v-3.996094c0-5.5 4.5-10 10-10h-30.851562c-5.5 0-10 4.5-10 10v3.996094c0 5.5 4.5 10 10 10h30.851562c-5.5 0-10-4.5-10-10zm0 0" fill="#d9eafc"/><path d="m62 255v-3.996094c0-5.5 4.5-10 10-10h-30.851562c-5.5 0-10 4.5-10 10v3.996094c0 5.5 4.5 10 10 10h30.851562c-5.5 0-10-4.5-10-10zm0 0" fill="#eef6ff"/></svg>