<?xml version="1.0" encoding="iso-8859-1"?>
<!-- Generator: Adobe Illustrator 19.0.0, SVG Export Plug-In . SVG Version: 6.00 Build 0)  -->
<svg xmlns="http://www.w3.org/2000/svg" xmlns:xlink="http://www.w3.org/1999/xlink" version="1.1" id="Layer_1" x="0px" y="0px" viewBox="0 0 512 512" style="enable-background:new 0 0 512 512;" xml:space="preserve" width="512px" height="512px">
<g>
	<g>
		<path d="M503.467,17.067h-281.6c-4.719,0-8.533,3.823-8.533,8.533v153.6H8.533C3.814,179.2,0,183.023,0,187.733V409.6    c0,4.71,3.814,8.533,8.533,8.533h282.778l7.407,69.171c0.384,3.576,2.961,6.528,6.451,7.381c0.674,0.171,1.357,0.247,2.031,0.247    c2.807,0,5.495-1.391,7.1-3.797l48.666-73.003H460.8c3.524,0,6.69-2.167,7.97-5.47c1.263-3.285,0.375-7.023-2.244-9.395    l-96.751-87.535h133.692c4.719,0,8.533-3.823,8.533-8.533V25.6C512,20.89,508.186,17.067,503.467,17.067z M287.326,241.135    c-2.637-2.372-6.46-2.884-9.6-1.271c-3.149,1.604-4.983,4.992-4.608,8.508l5.385,50.295H230.4v-102.4h102.4v86.016    L287.326,241.135z M438.647,401.067H358.4c-2.85,0-5.513,1.425-7.1,3.797l-38.127,57.19l-5.717-53.35v-0.008l-14.993-139.887    l49.425,44.723l0.017,0.009L438.647,401.067z" fill="#FFFFFF"/>
	</g>
</g>
<g>
</g>
<g>
</g>
<g>
</g>
<g>
</g>
<g>
</g>
<g>
</g>
<g>
</g>
<g>
</g>
<g>
</g>
<g>
</g>
<g>
</g>
<g>
</g>
<g>
</g>
<g>
</g>
<g>
</g>
</svg>
