  <svg  xmlns="http://www.w3.org/2000/svg" xmlns:xlink="http://www.w3.org/1999/xlink" version="1.1" style="enable-background:new 0 0 215.35 215.35;" xml:space="preserve" height="25px"  x="0px" y="0px" viewBox="0 0 16.2 12.2">

    <g transform="translate(0)">
      <path fill="#FFFFFF" d="M16.2,4.9l0-4.5C16.1,0.2,15.9,0,15.7,0L11,0.1H0.5C0.3,0.1,0.1,0.2,0,0.5l0,5.5l12.6,2.2
L16.2,4.9z" />
      <path fill="#FFFFFF" d="M16.2,11.5V6.2l-6.2,6.1h5.7c0.3,0,0.5-0.2,0.5-0.5C16.2,11.6,16.2,11.6,16.2,11.5L16.2,11.5
z" />
      <path fill="#FFFFFF" d="M0.1,11.5c-0.1,0.3,0.1,0.6,0.4,0.7c0,0,0.1,0,0.1,0h2.1V7.1L0.1,6.7L0.1,11.5z" />
      <path fill="#FFFFFF" d="M3.5,7.3v5h5.3l3.3-3.4L3.5,7.3z" />
    </g>
  </svg>
