
  <svg xmlns="http://www.w3.org/2000/svg" xmlns:xlink="http://www.w3.org/1999/xlink" version="1.1" style="enable-background:new 0 0 215.35 215.35;" xml:space="preserve" height="25px" x="0px" y="0px" viewBox="0 0 16.4 16.3">
    <g transform="translate(-3033.523 514.531)">
      <path fill="#FFFFFF" d="M3041.4-498.4c0.1,0.1,0.2,0.1,0.4,0.1c0.1,0,0.3-0.1,0.4-0.1c0.1-0.1,3.4-3,3.4-6
c0-2.1-1.7-3.7-3.7-3.7c-2.1,0-3.7,1.7-3.7,3.7c0,0.6,0.1,1.1,0.3,1.6C3039-501.1,3040-499.6,3041.4-498.4z M3041.7-505.3
c0.5,0,1,0.4,1,1l0,0l0,0c0,0.5-0.4,1-1,1l0,0l0,0c-0.5,0-1-0.4-1-1l0,0C3040.8-504.9,3041.2-505.3,3041.7-505.3z" />
      <g>
        <g>
          <path fill="#FFFFFF" d="M3037-504.3c0-2.5,1.9-4.5,4.4-4.7v-1.7c-2.5-1.1-5.2-1.5-7.9-1.4l1,9
c0.9-0.2,1.8-0.2,2.6-0.1C3037-503.6,3037-504,3037-504.3z" />
        </g>
      </g>
      <g>
        <path fill="#FFFFFF" d="M3042.1-510.8v1.7c2.5,0.2,4.4,2.2,4.4,4.7c0,0.4,0,0.8-0.1,1.1c0.9-0.1,1.8-0.1,2.7,0.1
l1-9C3047.3-512.3,3044.6-511.8,3042.1-510.8z" />
      </g>
      <path fill="#FFFFFF" d="M3035.5-512.9c0,0,4.2,0.4,5.9,1.4v-0.5c-1.7-1.4-3.8-2.2-6-2.4L3035.5-512.9z" />
      <path fill="#FFFFFF" d="M3048-512.9c0,0-4.2,0.4-5.9,1.4v-0.5c1.7-1.4,3.8-2.2,6-2.4L3048-512.9z" />
    </g>
  </svg>
