<svg id="Groupe_4496" data-name="Groupe 4496" xmlns="http://www.w3.org/2000/svg" width="147.493" height="76.519" viewBox="0 0 132.384 45.242">
  <g id="Groupe_3529" data-name="Groupe 3529" transform="translate(0 5.555)">
    <path id="Tracé_3006" data-name="Tracé 3006" d="M355.206,156.529v7.635c0,6.264-2.964,8.969-9.747,8.969s-9.525-2.705-9.525-8.857V152.341c0-5.819,2.632-8.524,9.525-8.524s9.747,2.409,9.747,8.524h-5.114c0-2.669-.667-4-4.633-4-3.707,0-4.411,1.668-4.411,4.262v11.675c0,2.705.7,4.262,4.411,4.262s5-1.557,5-4.374v-3h-4.855v-4.633Z" transform="translate(-335.934 -143.817)" fill="#fff"/>
    <path id="Tracé_3007" data-name="Tracé 3007" d="M369.606,173.707c-5.744,0-8.488-2.631-8.488-8.524v-5.37c0-5.486,2.743-8.524,8.488-8.524s8.488,2.631,8.488,8.524v4.447H366.235v.852c0,3.521,1.371,4.189,3.447,4.189,2.41,0,3.414-.852,3.414-2.373h5C378.093,171.525,375.351,173.707,369.606,173.707Zm-3.372-13.747h6.931c0-2.743-.518-4.262-3.414-4.262C366.752,155.7,366.234,157.329,366.234,159.96Z" transform="translate(-337.883 -144.395)" fill="#fff"/>
  </g>
  <g id="Groupe_3530" data-name="Groupe 3530" transform="translate(83.022 12.446)">
    <path id="Tracé_3008" data-name="Tracé 3008" d="M434.52,155.848c-1.964,0-3.151.853-3.151,2.372,0,2.41,2.521,2.076,5.448,2.41s5.857,2.074,5.857,5.966c0,4.781-3.744,7.116-8.45,7.116-5.189,0-8.3-2.631-8.3-6.857h5.152c.111,1.52.923,2.41,3.372,2.41a2.806,2.806,0,0,0,3.076-2.483c0-1.854-2.409-1.89-5.04-2.224-3.188-.408-6.264-1.779-6.264-6.077,0-4.929,3.521-7.19,8.265-7.19,5.374,0,7.934,3.039,7.934,6.968H437.45C437.447,156.589,436.15,155.848,434.52,155.848Z" transform="translate(-425.92 -151.287)" fill="#fff"/>
    <path id="Tracé_3009" data-name="Tracé 3009" d="M452.7,151.656l.334,2.038a6.512,6.512,0,0,1,5.148-2.407,5.682,5.682,0,0,1,5.373,2.854,7.365,7.365,0,0,1,6.227-2.817c4.521,0,7.227,2.631,7.227,8.561v13.453h-5.074v-13.45c0-2.818-1.149-3.967-3.261-3.967-1.927,0-3.373.816-3.447,3.929v13.488h-5.074v-13.45c0-2.818-1.149-3.967-3.261-3.967-1.964,0-3.522.963-3.522,3.783v13.634H448.3V151.656Z" transform="translate(-427.652 -151.286)" fill="#fff"/>
  </g>
  <path id="Tracé_4737" data-name="Tracé 4737" d="M406.836,139.355c-3.6-3.508-8.321,0-8.321,0a.7.7,0,0,0-1.149-.336c-4.189,1.484-7.287,7.78-7.287,7.78-11.883,27.365,5.834,35.249,7.866,36.014s2.7-.665,2.7-.665c.333-.933.866-.4.866-.4,2.166,3.233,6.908-1.928,6.908-1.928C427.516,158.931,406.836,139.355,406.836,139.355Zm-4.01,8.826.086.287c.086.287-.287.574-.287.574s-.46.23-.373,1.177a45.982,45.982,0,0,1-1.18,5.99c-4.116,15.429,0,17.935,0,17.935a11.42,11.42,0,0,0,.3,2.648,2.447,2.447,0,0,1-.171,1.97c-.257.449-.75-.235-.75-.235-.171-4.024-2.14-4.9-2.14-4.9s.193-2.44-.386-2.654-.385-.621-.385-.621c1.456-2.012-.129-2.569-.129-2.569s-.727-.192-.235-.663.835-2.033.114-2.354,0-.793,0-.793.913-.514.421-.9-.942-2.056-.3-2.4.172-1.413.172-1.413a1.975,1.975,0,0,1,.257-2.312c.492-.814-.45-1.605-1.028-1.991s.321-.685.321-.685,2.354-.536.493-1.306-.942-1.734-.942-1.734,1.734-.985.278-1.991-.6-1.52-.6-1.52,1.244-.856.538-1.242-.728-2.355,0-1.948.5-.124.5-.124a1.461,1.461,0,0,1,.3-1.65,3.312,3.312,0,0,0,.773-2.1l.887.726c.886.727,3.356.89,3.356.89-1.234,2.783.517,3.586.517,3.586C400.846,148.181,402.826,148.181,402.826,148.181Z" transform="translate(-339.809 -137.796)" fill="#fff"/>
</svg>
