<?xml version="1.0" encoding="utf-8"?>
<!-- Generator: Adobe Illustrator 23.1.1, SVG Export Plug-In . SVG Version: 6.00 Build 0)  -->
<svg version="1.1" id="Calque_1" xmlns="http://www.w3.org/2000/svg" xmlns:xlink="http://www.w3.org/1999/xlink" x="0px" y="0px"
	 viewBox="0 0 42.9 42.9" style="enable-background:new 0 0 42.9 42.9;" xml:space="preserve" width="26" height="26">
<style type="text/css">
	.st0{fill:#00ADA7;}
	.st1{fill:#707070;}
</style>
<g transform="matrix(1, 0, 0, 1, 0, 0)">
	<g id="Tracé_1939-2">
		<path class="st0" d="M21.4,7.5c6,0,10.9,4.9,10.9,10.9s-4.9,10.9-10.9,10.9s-10.9-4.9-10.9-10.9c0,0,0,0,0,0
			C10.5,12.4,15.4,7.5,21.4,7.5z"/>
		<path class="st1" d="M21.4,30.9C14.6,30.9,9,25.3,9,18.4S14.6,6,21.4,6s12.4,5.6,12.4,12.4S28.3,30.9,21.4,30.9z M21.4,9
			c-5.2,0-9.4,4.2-9.4,9.4s4.2,9.4,9.4,9.4s9.4-4.2,9.4-9.4S26.6,9,21.4,9z"/>
	</g>
</g>
</svg>
