<svg xmlns="http://www.w3.org/2000/svg" width="26" height="26" viewBox="0 0 26 26">
  <g id="Groupe_3047" data-name="Groupe 3047" transform="translate(-1715.766 -199.766)">
    <g id="Groupe_3041" data-name="Groupe 3041" transform="translate(1719 203)">
      <g id="Groupe_3048" data-name="Groupe 3048">
        <path id="Tracé_1930" data-name="Tracé 1930" d="M321.884,405.533v-.641h-.337C321.651,405.11,321.763,405.325,321.884,405.533Z" transform="translate(-320.569 -390.891)"/>
        <path id="Tracé_1931" data-name="Tracé 1931" d="M332.14,399.293v.641h.335C332.371,399.716,332.26,399.5,332.14,399.293Z" transform="translate(-313.92 -394.405)"/>
        <g id="Groupe_3049" data-name="Groupe 3049">
          <g id="Tracé_1938" data-name="Tracé 1938" transform="translate(-3.234 -3.234)" fill="#fff">
            <path d="M 13 24.5 C 9.928239822387695 24.5 7.040339946746826 23.30378913879395 4.868269920349121 21.13172912597656 C 2.696209907531738 18.95965957641602 1.5 16.0717601776123 1.5 13 C 1.5 9.928239822387695 2.696209907531738 7.040339946746826 4.868269920349121 4.868269920349121 C 7.040339946746826 2.696209907531738 9.928239822387695 1.5 13 1.5 C 16.0717601776123 1.5 18.95965957641602 2.696209907531738 21.13172912597656 4.868269920349121 C 23.30378913879395 7.040339946746826 24.5 9.928239822387695 24.5 13 C 24.5 16.0717601776123 23.30378913879395 18.95965957641602 21.13172912597656 21.13172912597656 C 18.95965957641602 23.30378913879395 16.0717601776123 24.5 13 24.5 Z" stroke="none"/>
            <path d="M 13 3 C 7.485979080200195 3 3 7.485979080200195 3 13 C 3 18.51401901245117 7.485979080200195 23 13 23 C 18.51401901245117 23 23 18.51401901245117 23 13 C 23 7.485979080200195 18.51401901245117 3 13 3 M 13 0 C 20.1796989440918 0 26 5.82029914855957 26 13 C 26 20.1796989440918 20.1796989440918 26 13 26 C 5.82029914855957 26 0 20.1796989440918 0 13 C 0 5.82029914855957 5.82029914855957 0 13 0 Z" stroke="none" fill="#707070"/>
          </g>
          <path id="Tracé_1929" data-name="Tracé 1929" d="M325.979,397.594h4.227v4.225h4.225v-4.225h.635a9.739,9.739,0,0,0-13.312,3.584v.641h4.225Z" transform="translate(-320.439 -396.29)"/>
          <path id="Tracé_1932" data-name="Tracé 1932" d="M337.274,404.892h-4.227v4.227h-4.225v-4.227h-4.227v4.227h-.635a9.74,9.74,0,0,0,13.314-3.586Z" transform="translate(-319.054 -390.891)"/>
          <path id="Tracé_1933" data-name="Tracé 1933" d="M330.713,403.933v4.225h4.225v-4.225h4.227v4.225h.335a9.7,9.7,0,0,0,.978-4.235l0-.01h-1.312v-4.227h-4.227v4.227h-4.225v-4.227h-4.227v4.227h-4.225v-4.227h-.337a9.7,9.7,0,0,0-.977,4.237v.01h1.314v4.225h4.225v-4.225Z" transform="translate(-320.945 -394.158)"/>
        </g>
      </g>
    </g>
  </g>
</svg>
